#include <stdint.h>
const uint8_t midifile[] = {

		0x4D, 0x54, 0x68, 0x64, 0x00, 0x00, 0x00, 0x06, 0x00, 0x01, 0x00, 0x02, 0x03, 0xC0, 0x4D, 0x54,
		0x72, 0x6B, 0x00, 0x00, 0x00, 0x54, 0x00, 0xFF, 0x58, 0x04, 0x04, 0x02, 0x18, 0x08, 0x00, 0xFF,
		0x59, 0x02, 0x00, 0x00, 0x00, 0xFF, 0x51, 0x03, 0x09, 0x27, 0xC0, 0x00, 0xFF, 0x03, 0x27, 0x4D,
		0x61, 0x72, 0x79, 0x20, 0x48, 0x61, 0x64, 0x20, 0x41, 0x20, 0x4C, 0x69, 0x74, 0x74, 0x6C, 0x65,
		0x20, 0x4C, 0x61, 0x6D, 0x62, 0x20, 0x28, 0x74, 0x72, 0x61, 0x64, 0x2E, 0x20, 0x61, 0x72, 0x72,
		0x61, 0x6E, 0x67, 0x65, 0x64, 0x20, 0x00, 0xFF, 0x01, 0x0C, 0x44, 0x61, 0x76, 0x69, 0x64, 0x20,
		0x42, 0x72, 0x75, 0x63, 0x65, 0x29, 0x01, 0xFF, 0x2F, 0x00, 0x4D, 0x54, 0x72, 0x6B, 0x00, 0x00,
		0x02, 0x1F, 0x00, 0xC0, 0x00, 0x00, 0xB0, 0x79, 0x00, 0x00, 0xB0, 0x40, 0x00, 0x00, 0xB0, 0x5B,
		0x30, 0x00, 0xB0, 0x0A, 0x33, 0x00, 0xB0, 0x07, 0x7F, 0x00, 0x90, 0x40, 0x47, 0x00, 0xB0, 0x79,
		0x00, 0x00, 0xB0, 0x40, 0x00, 0x00, 0xB0, 0x5B, 0x30, 0x00, 0xB0, 0x0A, 0x33, 0x00, 0xB0, 0x07,
		0x7F, 0x00, 0xFF, 0x03, 0x05, 0x50, 0x69, 0x61, 0x6E, 0x6F, 0x00, 0x90, 0x30, 0x43, 0x87, 0x40,
		0x90, 0x3E, 0x46, 0x00, 0x90, 0x37, 0x53, 0x13, 0x80, 0x40, 0x00, 0x00, 0x80, 0x30, 0x00, 0x87,
		0x2D, 0x90, 0x3C, 0x49, 0x00, 0x90, 0x34, 0x4E, 0x13, 0x80, 0x3E, 0x00, 0x00, 0x80, 0x37, 0x00,
		0x87, 0x2D, 0x90, 0x3E, 0x4F, 0x00, 0x90, 0x37, 0x54, 0x13, 0x80, 0x3C, 0x00, 0x00, 0x80, 0x34,
		0x00, 0x86, 0x7C, 0x80, 0x3E, 0x00, 0x00, 0x80, 0x37, 0x00, 0x31, 0x90, 0x40, 0x58, 0x00, 0x90,
		0x30, 0x45, 0x87, 0x40, 0x80, 0x40, 0x00, 0x00, 0x90, 0x40, 0x57, 0x00, 0x90, 0x37, 0x50, 0x13,
		0x80, 0x30, 0x00, 0x87, 0x2D, 0x80, 0x40, 0x00, 0x00, 0x90, 0x40, 0x56, 0x00, 0x90, 0x34, 0x4C,
		0x13, 0x80, 0x37, 0x00, 0x87, 0x2D, 0x90, 0x37, 0x4F, 0x13, 0x80, 0x34, 0x00, 0x86, 0x7C, 0x80,
		0x37, 0x00, 0x31, 0x80, 0x40, 0x00, 0x00, 0x90, 0x3E, 0x4A, 0x00, 0x90, 0x2F, 0x46, 0x87, 0x40,
		0x80, 0x3E, 0x00, 0x00, 0x90, 0x3E, 0x55, 0x00, 0x90, 0x37, 0x54, 0x13, 0x80, 0x2F, 0x00, 0x87,
		0x2D, 0x80, 0x3E, 0x00, 0x00, 0x90, 0x3E, 0x54, 0x00, 0x90, 0x35, 0x4A, 0x13, 0x80, 0x37, 0x00,
		0x87, 0x2D, 0x90, 0x37, 0x4E, 0x13, 0x80, 0x35, 0x00, 0x86, 0x7C, 0x80, 0x37, 0x00, 0x31, 0x80,
		0x3E, 0x00, 0x00, 0x90, 0x40, 0x52, 0x00, 0x90, 0x30, 0x48, 0x87, 0x40, 0x90, 0x43, 0x55, 0x00,
		0x90, 0x37, 0x54, 0x13, 0x80, 0x40, 0x00, 0x00, 0x80, 0x30, 0x00, 0x86, 0x7C, 0x80, 0x43, 0x00,
		0x31, 0x90, 0x43, 0x4F, 0x00, 0x90, 0x34, 0x4A, 0x13, 0x80, 0x37, 0x00, 0x87, 0x2D, 0x90, 0x37,
		0x53, 0x13, 0x80, 0x34, 0x00, 0x86, 0x7C, 0x80, 0x37, 0x00, 0x31, 0x80, 0x43, 0x00, 0x00, 0x90,
		0x40, 0x44, 0x00, 0x90, 0x30, 0x43, 0x87, 0x40, 0x90, 0x3E, 0x44, 0x00, 0x90, 0x37, 0x53, 0x13,
		0x80, 0x40, 0x00, 0x00, 0x80, 0x30, 0x00, 0x87, 0x2D, 0x90, 0x3C, 0x45, 0x00, 0x90, 0x34, 0x4C,
		0x13, 0x80, 0x3E, 0x00, 0x00, 0x80, 0x37, 0x00, 0x87, 0x2D, 0x90, 0x3E, 0x52, 0x00, 0x90, 0x37,
		0x4D, 0x13, 0x80, 0x3C, 0x00, 0x00, 0x80, 0x34, 0x00, 0x86, 0x7C, 0x80, 0x3E, 0x00, 0x00, 0x80,
		0x37, 0x00, 0x31, 0x90, 0x40, 0x57, 0x00, 0x90, 0x30, 0x49, 0x87, 0x40, 0x80, 0x40, 0x00, 0x00,
		0x90, 0x40, 0x53, 0x00, 0x90, 0x37, 0x52, 0x13, 0x80, 0x30, 0x00, 0x87, 0x2D, 0x80, 0x40, 0x00,
		0x00, 0x90, 0x40, 0x53, 0x00, 0x90, 0x34, 0x4C, 0x13, 0x80, 0x37, 0x00, 0x87, 0x2D, 0x80, 0x40,
		0x00, 0x00, 0x90, 0x40, 0x56, 0x00, 0x90, 0x37, 0x4D, 0x13, 0x80, 0x34, 0x00, 0x86, 0x7C, 0x80,
		0x37, 0x00, 0x31, 0x80, 0x40, 0x00, 0x00, 0x90, 0x3E, 0x4F, 0x00, 0x90, 0x2F, 0x44, 0x87, 0x40,
		0x80, 0x3E, 0x00, 0x00, 0x90, 0x3E, 0x4F, 0x00, 0x90, 0x37, 0x58, 0x13, 0x80, 0x2F, 0x00, 0x87,
		0x2D, 0x80, 0x3E, 0x00, 0x00, 0x90, 0x40, 0x50, 0x00, 0x90, 0x35, 0x4A, 0x13, 0x80, 0x37, 0x00,
		0x87, 0x2D, 0x90, 0x3E, 0x49, 0x00, 0x90, 0x37, 0x49, 0x13, 0x80, 0x40, 0x00, 0x00, 0x80, 0x35,
		0x00, 0x86, 0x7C, 0x80, 0x3E, 0x00, 0x00, 0x80, 0x37, 0x00, 0x31, 0x90, 0x3C, 0x48, 0x00, 0x90,
		0x30, 0x45, 0x87, 0x40, 0x90, 0x37, 0x54, 0x13, 0x80, 0x30, 0x00, 0x87, 0x2D, 0x90, 0x30, 0x48,
		0x13, 0x80, 0x37, 0x00, 0x8E, 0x0C, 0x80, 0x30, 0x00, 0x61, 0x80, 0x3C, 0x00, 0x01, 0xFF, 0x2F,
		0x00
};
      /*  //tiki room
        0x4D, 0x54, 0x68, 0x64, 0x00, 0x00, 0x00, 0x06, 0x00, 0x00, 0x00, 0x01, 0x00, 0xF0, 0x4D, 0x54,
        0x72, 0x6B, 0x00, 0x00, 0x13, 0x80, 0x00, 0xFF, 0x58, 0x04, 0x04, 0x02, 0x18, 0x08, 0x00, 0xFF,
        0x51, 0x03, 0x0F, 0x42, 0x40, 0x00, 0xFF, 0x54, 0x05, 0x40, 0x00, 0x00, 0x00, 0x00, 0x00, 0xC0,
        0x48, 0x00, 0xC1, 0x0D, 0x00, 0xC2, 0x35, 0x00, 0xC3, 0x36, 0x00, 0xC4, 0x23, 0x00, 0xB0, 0x00,
        0x00, 0x00, 0xB0, 0x5D, 0x43, 0x00, 0xB1, 0x00, 0x00, 0x00, 0xB1, 0x0A, 0x03, 0x00, 0xB2, 0x00,
        0x00, 0x00, 0xB2, 0x0A, 0x08, 0x00, 0xB3, 0x00, 0x00, 0x00, 0xB3, 0x0A, 0x0A, 0x00, 0xB4, 0x00,
        0x00, 0x00, 0xB4, 0x0A, 0x76, 0x00, 0xB4, 0x5D, 0x00, 0x82, 0x0E, 0xC0, 0x48, 0x00, 0x90, 0x46,
        0x7F, 0x2D, 0x90, 0x46, 0x00, 0x00, 0x90, 0x46, 0x7F, 0x2D, 0x90, 0x46, 0x00, 0x00, 0x90, 0x43,
        0x7F, 0x00, 0xC1, 0x0D, 0x00, 0x91, 0x3A, 0x2B, 0x00, 0xC4, 0x23, 0x00, 0x94, 0x27, 0x7F, 0x2D,
        0x90, 0x43, 0x00, 0x00, 0x91, 0x3A, 0x00, 0x00, 0x90, 0x43, 0x7F, 0x00, 0x91, 0x3A, 0x2B, 0x2D,
        0x94, 0x27, 0x00, 0x00, 0x90, 0x43, 0x00, 0x00, 0x91, 0x3A, 0x00, 0x00, 0x90, 0x43, 0x7F, 0x00,
        0x91, 0x3A, 0x2B, 0x2D, 0x90, 0x43, 0x00, 0x00, 0x91, 0x3A, 0x00, 0x00, 0x90, 0x43, 0x7F, 0x00,
        0x91, 0x3A, 0x2B, 0x2D, 0x90, 0x43, 0x00, 0x00, 0x91, 0x3A, 0x00, 0x00, 0x90, 0x43, 0x7F, 0x00,
        0x91, 0x3A, 0x2B, 0x00, 0x94, 0x2E, 0x7F, 0x2D, 0x90, 0x43, 0x00, 0x00, 0x91, 0x3A, 0x00, 0x00,
        0x90, 0x3F, 0x7F, 0x00, 0x91, 0x37, 0x2B, 0x2D, 0x94, 0x2E, 0x00, 0x00, 0x90, 0x3F, 0x00, 0x00,
        0x91, 0x37, 0x00, 0x00, 0x90, 0x41, 0x7F, 0x00, 0x91, 0x38, 0x2B, 0x2D, 0x90, 0x41, 0x00, 0x00,
        0x91, 0x38, 0x00, 0x00, 0x90, 0x43, 0x7F, 0x00, 0x91, 0x3A, 0x2B, 0x2D, 0x90, 0x43, 0x00, 0x00,
        0x91, 0x3A, 0x00, 0x00, 0x90, 0x44, 0x7F, 0x00, 0x91, 0x3C, 0x2B, 0x00, 0x94, 0x2C, 0x7F, 0x2D,
        0x90, 0x44, 0x00, 0x00, 0x91, 0x3C, 0x00, 0x00, 0x90, 0x44, 0x7F, 0x00, 0x91, 0x3C, 0x2B, 0x2D,
        0x94, 0x2C, 0x00, 0x2D, 0x90, 0x44, 0x00, 0x00, 0x91, 0x3C, 0x00, 0x00, 0x90, 0x44, 0x7F, 0x00,
        0x91, 0x3C, 0x2B, 0x2D, 0x94, 0x27, 0x7F, 0x2D, 0x90, 0x44, 0x00, 0x00, 0x91, 0x3C, 0x00, 0x00,
        0x90, 0x44, 0x7F, 0x00, 0x91, 0x3C, 0x2B, 0x2D, 0x94, 0x27, 0x00, 0x00, 0x94, 0x2C, 0x7F, 0x2D,
        0x90, 0x44, 0x00, 0x00, 0x91, 0x3C, 0x00, 0x00, 0x90, 0x44, 0x7F, 0x00, 0x91, 0x3C, 0x2B, 0x2D,
        0x94, 0x2C, 0x00, 0x00, 0x90, 0x44, 0x00, 0x00, 0x91, 0x3C, 0x00, 0x00, 0x90, 0x41, 0x7F, 0x00,
        0x91, 0x38, 0x2B, 0x00, 0x94, 0x2E, 0x7F, 0x2D, 0x90, 0x41, 0x00, 0x00, 0x91, 0x38, 0x00, 0x00,
        0x90, 0x41, 0x7F, 0x00, 0x91, 0x38, 0x2B, 0x2D, 0x94, 0x2E, 0x00, 0x00, 0x90, 0x41, 0x00, 0x00,
        0x91, 0x38, 0x00, 0x00, 0x90, 0x41, 0x7F, 0x00, 0x91, 0x38, 0x2B, 0x2D, 0x90, 0x41, 0x00, 0x00,
        0x91, 0x38, 0x00, 0x00, 0x90, 0x41, 0x7F, 0x00, 0x91, 0x38, 0x2B, 0x2D, 0x90, 0x41, 0x00, 0x00,
        0x91, 0x38, 0x00, 0x00, 0x90, 0x41, 0x7F, 0x00, 0x91, 0x38, 0x2B, 0x2D, 0x90, 0x41, 0x00, 0x00,
        0x91, 0x38, 0x00, 0x00, 0x90, 0x3E, 0x7F, 0x00, 0x91, 0x35, 0x2B, 0x2D, 0x90, 0x3E, 0x00, 0x00,
        0x91, 0x35, 0x00, 0x00, 0x90, 0x3F, 0x7F, 0x00, 0x91, 0x37, 0x2B, 0x00, 0x94, 0x2E, 0x7F, 0x2D,
        0x90, 0x3F, 0x00, 0x00, 0x91, 0x37, 0x00, 0x00, 0x90, 0x41, 0x7F, 0x00, 0x91, 0x38, 0x2B, 0x2D,
        0x94, 0x2E, 0x00, 0x00, 0x90, 0x41, 0x00, 0x00, 0x91, 0x38, 0x00, 0x00, 0x90, 0x43, 0x7F, 0x00,
        0x91, 0x3A, 0x2B, 0x00, 0x94, 0x27, 0x7F, 0x2D, 0x90, 0x43, 0x00, 0x00, 0x91, 0x3A, 0x00, 0x00,
        0x90, 0x43, 0x7F, 0x00, 0x91, 0x3A, 0x2B, 0x2D, 0x94, 0x27, 0x00, 0x2D, 0x90, 0x43, 0x00, 0x00,
        0x91, 0x3A, 0x00, 0x00, 0x90, 0x43, 0x7F, 0x00, 0x91, 0x3A, 0x2B, 0x2D, 0x94, 0x30, 0x7F, 0x2D,
        0x90, 0x43, 0x00, 0x00, 0x91, 0x3A, 0x00, 0x00, 0x90, 0x46, 0x7F, 0x00, 0x91, 0x46, 0x2B, 0x2D,
        0x94, 0x30, 0x00, 0x00, 0x94, 0x2E, 0x7F, 0x2D, 0x90, 0x46, 0x00, 0x00, 0x91, 0x46, 0x00, 0x00,
        0x90, 0x44, 0x7F, 0x00, 0x91, 0x44, 0x2B, 0x2D, 0x94, 0x2E, 0x00, 0x00, 0x90, 0x44, 0x00, 0x00,
        0x91, 0x44, 0x00, 0x00, 0x90, 0x43, 0x7F, 0x00, 0x94, 0x27, 0x7F, 0x5A, 0x90, 0x43, 0x00, 0x00,
        0x94, 0x27, 0x00, 0x00, 0x90, 0x43, 0x7F, 0x5A, 0x90, 0x43, 0x00, 0x00, 0x90, 0x43, 0x7F, 0x00,
        0x94, 0x2E, 0x7F, 0x5A, 0x90, 0x43, 0x00, 0x00, 0x94, 0x2E, 0x00, 0x00, 0x90, 0x41, 0x7F, 0x2D,
        0x90, 0x41, 0x00, 0x00, 0x90, 0x43, 0x7F, 0x2D, 0x90, 0x43, 0x00, 0x00, 0x90, 0x44, 0x7F, 0x00,
        0x94, 0x2C, 0x7F, 0x2D, 0x90, 0x44, 0x00, 0x00, 0x90, 0x44, 0x7F, 0x2D, 0x94, 0x2C, 0x00, 0x5A,
        0x90, 0x44, 0x00, 0x00, 0x90, 0x48, 0x7F, 0x00, 0x94, 0x27, 0x7F, 0x5A, 0x90, 0x48, 0x00, 0x00,
        0x94, 0x27, 0x00, 0x00, 0x90, 0x4A, 0x7F, 0x00, 0x94, 0x2C, 0x7F, 0x2D, 0x90, 0x4A, 0x00, 0x00,
        0x90, 0x48, 0x7F, 0x2D, 0x94, 0x2C, 0x00, 0x00, 0x90, 0x48, 0x00, 0x00, 0x90, 0x46, 0x7F, 0x00,
        0x91, 0x3E, 0x2B, 0x00, 0x94, 0x2E, 0x7F, 0x2D, 0x90, 0x46, 0x00, 0x00, 0x91, 0x3E, 0x00, 0x00,
        0x90, 0x46, 0x7F, 0x00, 0x91, 0x3E, 0x2B, 0x2D, 0x94, 0x2E, 0x00, 0x00, 0x90, 0x46, 0x00, 0x00,
        0x91, 0x3E, 0x00, 0x00, 0x90, 0x46, 0x7F, 0x00, 0x91, 0x3E, 0x2B, 0x2D, 0x90, 0x46, 0x00, 0x00,
        0x91, 0x3E, 0x00, 0x00, 0x90, 0x46, 0x7F, 0x00, 0x91, 0x3E, 0x2B, 0x2D, 0x90, 0x46, 0x00, 0x00,
        0x91, 0x3E, 0x00, 0x00, 0x90, 0x41, 0x7F, 0x00, 0x91, 0x38, 0x2B, 0x00, 0x94, 0x29, 0x7F, 0x2D,
        0x90, 0x41, 0x00, 0x00, 0x91, 0x38, 0x00, 0x00, 0x90, 0x41, 0x7F, 0x00, 0x91, 0x38, 0x2B, 0x2D,
        0x94, 0x29, 0x00, 0x00, 0x90, 0x41, 0x00, 0x00, 0x91, 0x38, 0x00, 0x00, 0x90, 0x3E, 0x7F, 0x00,
        0x91, 0x38, 0x2B, 0x00, 0x94, 0x2E, 0x7F, 0x2D, 0x90, 0x3E, 0x00, 0x00, 0x91, 0x38, 0x00, 0x00,
        0x90, 0x3E, 0x7F, 0x00, 0x91, 0x38, 0x2B, 0x2D, 0x94, 0x2E, 0x00, 0x00, 0x90, 0x3E, 0x00, 0x00,
        0x91, 0x38, 0x00, 0x00, 0x90, 0x41, 0x7F, 0x00, 0x91, 0x38, 0x2B, 0x00, 0x94, 0x27, 0x7F, 0x2D,
        0x90, 0x41, 0x00, 0x00, 0x91, 0x38, 0x00, 0x00, 0x90, 0x3F, 0x7F, 0x00, 0x91, 0x37, 0x2B, 0x2D,
        0x94, 0x27, 0x00, 0x2D, 0x90, 0x3F, 0x00, 0x00, 0x91, 0x37, 0x00, 0x00, 0x90, 0x3F, 0x7F, 0x00,
        0x91, 0x37, 0x2B, 0x2D, 0x94, 0x2E, 0x7F, 0x5A, 0x90, 0x3F, 0x00, 0x00, 0x91, 0x37, 0x00, 0x00,
        0x94, 0x2E, 0x00, 0x00, 0x91, 0x46, 0x2B, 0x00, 0xC2, 0x35, 0x00, 0x92, 0x43, 0x4A, 0x00, 0x94,
        0x2E, 0x7F, 0x5A, 0x91, 0x46, 0x00, 0x00, 0x92, 0x43, 0x00, 0x00, 0x94, 0x2E, 0x00, 0x00, 0x90,
        0x43, 0x7F, 0x00, 0x91, 0x3A, 0x2B, 0x00, 0x94, 0x27, 0x7F, 0x2D, 0x90, 0x43, 0x00, 0x00, 0x90,
        0x43, 0x7F, 0x2D, 0x94, 0x27, 0x00, 0x00, 0x90, 0x43, 0x00, 0x00, 0x90, 0x43, 0x7F, 0x2D, 0x90,
        0x43, 0x00, 0x00, 0x90, 0x43, 0x7F, 0x2D, 0x90, 0x43, 0x00, 0x00, 0x90, 0x43, 0x7F, 0x00, 0x94,
        0x2E, 0x7F, 0x2D, 0x90, 0x43, 0x00, 0x00, 0x90, 0x41, 0x7F, 0x2D, 0x94, 0x2E, 0x00, 0x00, 0x90,
        0x41, 0x00, 0x00, 0x90, 0x43, 0x7F, 0x5A, 0x91, 0x3A, 0x00, 0x00, 0x90, 0x43, 0x00, 0x00, 0x90,
        0x44, 0x7F, 0x00, 0x91, 0x3C, 0x2B, 0x00, 0x94, 0x2C, 0x7F, 0x5A, 0x90, 0x44, 0x00, 0x00, 0x91,
        0x3C, 0x00, 0x00, 0x94, 0x2C, 0x00, 0x00, 0x90, 0x44, 0x7F, 0x2D, 0x90, 0x44, 0x00, 0x00, 0x90,
        0x3C, 0x7F, 0x00, 0x91, 0x38, 0x2B, 0x2D, 0x94, 0x27, 0x7F, 0x5A, 0x90, 0x3C, 0x00, 0x00, 0x91,
        0x38, 0x00, 0x00, 0x94, 0x27, 0x00, 0x2D, 0x90, 0x3F, 0x7F, 0x2D, 0x90, 0x3F, 0x00, 0x00, 0x90,
        0x3E, 0x7F, 0x00, 0x91, 0x3C, 0x2B, 0x00, 0x94, 0x2E, 0x7F, 0x5A, 0x90, 0x3E, 0x00, 0x00, 0x94,
        0x2E, 0x00, 0x00, 0x90, 0x3E, 0x7F, 0x5A, 0x91, 0x3C, 0x00, 0x00, 0x90, 0x3E, 0x00, 0x00, 0x90,
        0x3C, 0x7F, 0x00, 0x91, 0x3C, 0x2B, 0x00, 0x94, 0x29, 0x7F, 0x2D, 0x90, 0x3C, 0x00, 0x00, 0x91,
        0x3C, 0x00, 0x00, 0x90, 0x3E, 0x7F, 0x2D, 0x94, 0x29, 0x00, 0x00, 0x94, 0x2E, 0x7F, 0x2D, 0x90,
        0x3E, 0x00, 0x00, 0x90, 0x3F, 0x7F, 0x00, 0x91, 0x37, 0x2B, 0x2D, 0x94, 0x2E, 0x00, 0x00, 0x94,
        0x27, 0x7F, 0x2D, 0x91, 0x37, 0x00, 0x00, 0x91, 0x3F, 0x2B, 0x00, 0x92, 0x3C, 0x4A, 0x2D, 0x90,
        0x3F, 0x00, 0x00, 0x94, 0x27, 0x00, 0x2D, 0x91, 0x3F, 0x00, 0x00, 0x92, 0x3C, 0x00, 0x00, 0x91,
        0x3F, 0x2B, 0x00, 0x92, 0x3C, 0x4A, 0x2D, 0x91, 0x3F, 0x00, 0x00, 0x92, 0x3C, 0x00, 0x00, 0x91,
        0x43, 0x2B, 0x00, 0x92, 0x3F, 0x4A, 0x00, 0x94, 0x30, 0x7F, 0x2D, 0x91, 0x43, 0x00, 0x00, 0x92,
        0x3F, 0x00, 0x00, 0x90, 0x46, 0x7F, 0x2D, 0x94, 0x30, 0x00, 0x00, 0x94, 0x2E, 0x7F, 0x2D, 0x90,
        0x46, 0x00, 0x00, 0x90, 0x44, 0x7F, 0x2D, 0x94, 0x2E, 0x00, 0x00, 0x90, 0x44, 0x00, 0x00, 0x90,
        0x43, 0x7F, 0x00, 0x91, 0x3A, 0x2B, 0x00, 0x94, 0x27, 0x7F, 0x2D, 0x90, 0x43, 0x00, 0x00, 0x90,
        0x43, 0x7F, 0x2D, 0x94, 0x27, 0x00, 0x00, 0x90, 0x43, 0x00, 0x00, 0x90, 0x43, 0x7F, 0x2D, 0x90,
        0x43, 0x00, 0x00, 0x90, 0x43, 0x7F, 0x2D, 0x90, 0x43, 0x00, 0x00, 0x90, 0x43, 0x7F, 0x00, 0x94,
        0x2E, 0x7F, 0x5A, 0x90, 0x43, 0x00, 0x00, 0x94, 0x2E, 0x00, 0x00, 0x90, 0x41, 0x7F, 0x2D, 0x90,
        0x41, 0x00, 0x00, 0x90, 0x43, 0x7F, 0x2D, 0x91, 0x3A, 0x00, 0x00, 0x90, 0x43, 0x00, 0x00, 0x90,
        0x44, 0x7F, 0x00, 0x91, 0x3C, 0x2B, 0x00, 0x94, 0x2C, 0x7F, 0x2D, 0x90, 0x44, 0x00, 0x00, 0x91,
        0x3C, 0x00, 0x00, 0x90, 0x44, 0x7F, 0x00, 0x91, 0x3C, 0x2B, 0x2D, 0x94, 0x2C, 0x00, 0x2D, 0x90,
        0x44, 0x00, 0x00, 0x91, 0x3C, 0x00, 0x00, 0x90, 0x48, 0x7F, 0x00, 0x91, 0x3F, 0x2B, 0x2D, 0x94,
        0x27, 0x7F, 0x2D, 0x90, 0x48, 0x00, 0x00, 0x91, 0x3F, 0x00, 0x00, 0x90, 0x48, 0x7F, 0x00, 0x91,
        0x3F, 0x2B, 0x2D, 0x94, 0x27, 0x00, 0x2D, 0x90, 0x48, 0x00, 0x00, 0x91, 0x3F, 0x00, 0x00, 0x90,
        0x48, 0x7F, 0x00, 0x91, 0x3F, 0x2B, 0x2D, 0x90, 0x48, 0x00, 0x00, 0x91, 0x3F, 0x00, 0x00, 0x90,
        0x46, 0x7F, 0x00, 0x91, 0x3E, 0x2B, 0x00, 0x94, 0x2E, 0x7F, 0x5A, 0x90, 0x46, 0x00, 0x00, 0x91,
        0x3E, 0x00, 0x00, 0x94, 0x2E, 0x00, 0x00, 0x90, 0x3E, 0x7F, 0x00, 0x91, 0x3E, 0x2B, 0x2D, 0x90,
        0x3E, 0x00, 0x00, 0x91, 0x3E, 0x00, 0x00, 0x90, 0x44, 0x7F, 0x00, 0x91, 0x3E, 0x2B, 0x2D, 0x94,
        0x29, 0x7F, 0x2D, 0x90, 0x44, 0x00, 0x00, 0x91, 0x3E, 0x00, 0x00, 0x90, 0x43, 0x7F, 0x2D, 0x94,
        0x29, 0x00, 0x00, 0x90, 0x43, 0x00, 0x00, 0x90, 0x41, 0x7F, 0x00, 0x91, 0x38, 0x2B, 0x00, 0x94,
        0x35, 0x7F, 0x5A, 0x90, 0x41, 0x00, 0x00, 0x91, 0x38, 0x00, 0x00, 0x94, 0x35, 0x00, 0x00, 0x90,
        0x3F, 0x7F, 0x00, 0x91, 0x37, 0x2B, 0x00, 0x94, 0x27, 0x7F, 0x2D, 0x90, 0x3F, 0x00, 0x2D, 0x91,
        0x37, 0x00, 0x00, 0x94, 0x27, 0x00, 0x81, 0x34, 0x90, 0x46, 0x7F, 0x2D, 0x90, 0x46, 0x00, 0x00,
        0x90, 0x46, 0x7F, 0x2D, 0x90, 0x46, 0x00, 0x00, 0x90, 0x43, 0x7F, 0x00, 0x91, 0x3A, 0x2B, 0x00,
        0x94, 0x27, 0x7F, 0x2D, 0x90, 0x43, 0x00, 0x00, 0x91, 0x3A, 0x00, 0x00, 0x90, 0x43, 0x7F, 0x00,
        0x91, 0x3A, 0x2B, 0x2D, 0x94, 0x27, 0x00, 0x00, 0x90, 0x43, 0x00, 0x00, 0x91, 0x3A, 0x00, 0x00,
        0x90, 0x43, 0x7F, 0x00, 0x91, 0x3A, 0x2B, 0x2D, 0x90, 0x43, 0x00, 0x00, 0x91, 0x3A, 0x00, 0x00,
        0x90, 0x43, 0x7F, 0x00, 0x91, 0x3A, 0x2B, 0x2D, 0x90, 0x43, 0x00, 0x00, 0x91, 0x3A, 0x00, 0x00,
        0x90, 0x43, 0x7F, 0x00, 0x91, 0x3A, 0x2B, 0x00, 0x94, 0x2E, 0x7F, 0x2D, 0x90, 0x43, 0x00, 0x00,
        0x91, 0x3A, 0x00, 0x00, 0x90, 0x3F, 0x7F, 0x00, 0x91, 0x37, 0x2B, 0x2D, 0x94, 0x2E, 0x00, 0x00,
        0x90, 0x3F, 0x00, 0x00, 0x91, 0x37, 0x00, 0x00, 0x90, 0x41, 0x7F, 0x00, 0x91, 0x38, 0x2B, 0x2D,
        0x90, 0x41, 0x00, 0x00, 0x91, 0x38, 0x00, 0x00, 0x90, 0x43, 0x7F, 0x00, 0x91, 0x3A, 0x2B, 0x2D,
        0x90, 0x43, 0x00, 0x00, 0x91, 0x3A, 0x00, 0x00, 0x90, 0x44, 0x7F, 0x00, 0x91, 0x3C, 0x2B, 0x00,
        0x94, 0x2C, 0x7F, 0x2D, 0x90, 0x44, 0x00, 0x00, 0x91, 0x3C, 0x00, 0x00, 0x90, 0x44, 0x7F, 0x00,
        0x91, 0x3C, 0x2B, 0x2D, 0x94, 0x2C, 0x00, 0x2D, 0x90, 0x44, 0x00, 0x00, 0x91, 0x3C, 0x00, 0x00,
        0x90, 0x44, 0x7F, 0x00, 0x91, 0x3C, 0x2B, 0x2D, 0x94, 0x27, 0x7F, 0x2D, 0x90, 0x44, 0x00, 0x00,
        0x91, 0x3C, 0x00, 0x00, 0x90, 0x44, 0x7F, 0x00, 0x91, 0x3C, 0x2B, 0x2D, 0x94, 0x27, 0x00, 0x00,
        0x94, 0x2C, 0x7F, 0x2D, 0x90, 0x44, 0x00, 0x00, 0x91, 0x3C, 0x00, 0x00, 0x90, 0x44, 0x7F, 0x00,
        0x91, 0x3C, 0x2B, 0x2D, 0x94, 0x2C, 0x00, 0x00, 0x90, 0x44, 0x00, 0x00, 0x91, 0x3C, 0x00, 0x00,
        0x90, 0x41, 0x7F, 0x00, 0x91, 0x38, 0x2B, 0x00, 0x94, 0x2E, 0x7F, 0x2D, 0x90, 0x41, 0x00, 0x00,
        0x91, 0x38, 0x00, 0x00, 0x90, 0x41, 0x7F, 0x00, 0x91, 0x38, 0x2B, 0x2D, 0x94, 0x2E, 0x00, 0x00,
        0x90, 0x41, 0x00, 0x00, 0x91, 0x38, 0x00, 0x00, 0x90, 0x41, 0x7F, 0x00, 0x91, 0x38, 0x2B, 0x2D,
        0x90, 0x41, 0x00, 0x00, 0x91, 0x38, 0x00, 0x00, 0x90, 0x41, 0x7F, 0x00, 0x91, 0x38, 0x2B, 0x2D,
        0x90, 0x41, 0x00, 0x00, 0x91, 0x38, 0x00, 0x00, 0x90, 0x41, 0x7F, 0x00, 0x91, 0x38, 0x2B, 0x2D,
        0x90, 0x41, 0x00, 0x00, 0x91, 0x38, 0x00, 0x00, 0x90, 0x3E, 0x7F, 0x00, 0x91, 0x35, 0x2B, 0x2D,
        0x90, 0x3E, 0x00, 0x00, 0x91, 0x35, 0x00, 0x00, 0x90, 0x3F, 0x7F, 0x00, 0x91, 0x37, 0x2B, 0x00,
        0x94, 0x2E, 0x7F, 0x2D, 0x90, 0x3F, 0x00, 0x00, 0x91, 0x37, 0x00, 0x00, 0x90, 0x41, 0x7F, 0x00,
        0x91, 0x38, 0x2B, 0x2D, 0x94, 0x2E, 0x00, 0x00, 0x90, 0x41, 0x00, 0x00, 0x91, 0x38, 0x00, 0x00,
        0x90, 0x43, 0x7F, 0x00, 0x91, 0x3A, 0x2B, 0x00, 0x94, 0x27, 0x7F, 0x2D, 0x90, 0x43, 0x00, 0x00,
        0x91, 0x3A, 0x00, 0x00, 0x90, 0x43, 0x7F, 0x00, 0x91, 0x3A, 0x2B, 0x2D, 0x94, 0x27, 0x00, 0x2D,
        0x90, 0x43, 0x00, 0x00, 0x91, 0x3A, 0x00, 0x00, 0x90, 0x43, 0x7F, 0x00, 0x91, 0x3A, 0x2B, 0x2D,
        0x94, 0x30, 0x7F, 0x2D, 0x90, 0x43, 0x00, 0x00, 0x91, 0x3A, 0x00, 0x00, 0x90, 0x46, 0x7F, 0x00,
        0x91, 0x46, 0x2B, 0x2D, 0x94, 0x30, 0x00, 0x00, 0x94, 0x2E, 0x7F, 0x2D, 0x90, 0x46, 0x00, 0x00,
        0x91, 0x46, 0x00, 0x00, 0x90, 0x44, 0x7F, 0x00, 0x91, 0x44, 0x2B, 0x2D, 0x94, 0x2E, 0x00, 0x00,
        0x90, 0x44, 0x00, 0x00, 0x91, 0x44, 0x00, 0x00, 0x90, 0x43, 0x7F, 0x00, 0x94, 0x27, 0x7F, 0x5A,
        0x90, 0x43, 0x00, 0x00, 0x94, 0x27, 0x00, 0x00, 0x90, 0x43, 0x7F, 0x5A, 0x90, 0x43, 0x00, 0x00,
        0x90, 0x43, 0x7F, 0x00, 0x94, 0x2E, 0x7F, 0x5A, 0x90, 0x43, 0x00, 0x00, 0x94, 0x2E, 0x00, 0x00,
        0x90, 0x41, 0x7F, 0x2D, 0x90, 0x41, 0x00, 0x00, 0x90, 0x43, 0x7F, 0x2D, 0x90, 0x43, 0x00, 0x00,
        0x90, 0x44, 0x7F, 0x00, 0x94, 0x2C, 0x7F, 0x2D, 0x90, 0x44, 0x00, 0x00, 0x90, 0x44, 0x7F, 0x2D,
        0x94, 0x2C, 0x00, 0x5A, 0x90, 0x44, 0x00, 0x00, 0x90, 0x48, 0x7F, 0x00, 0x94, 0x27, 0x7F, 0x5A,
        0x90, 0x48, 0x00, 0x00, 0x94, 0x27, 0x00, 0x00, 0x90, 0x4A, 0x7F, 0x00, 0x94, 0x2C, 0x7F, 0x2D,
        0x90, 0x4A, 0x00, 0x00, 0x90, 0x48, 0x7F, 0x2D, 0x94, 0x2C, 0x00, 0x00, 0x90, 0x48, 0x00, 0x00,
        0x90, 0x46, 0x7F, 0x00, 0x91, 0x3E, 0x2B, 0x00, 0x94, 0x2E, 0x7F, 0x2D, 0x90, 0x46, 0x00, 0x00,
        0x91, 0x3E, 0x00, 0x00, 0x90, 0x46, 0x7F, 0x00, 0x91, 0x3E, 0x2B, 0x2D, 0x94, 0x2E, 0x00, 0x00,
        0x90, 0x46, 0x00, 0x00, 0x91, 0x3E, 0x00, 0x00, 0x90, 0x46, 0x7F, 0x00, 0x91, 0x3E, 0x2B, 0x2D,
        0x90, 0x46, 0x00, 0x00, 0x91, 0x3E, 0x00, 0x00, 0x90, 0x46, 0x7F, 0x00, 0x91, 0x3E, 0x2B, 0x2D,
        0x90, 0x46, 0x00, 0x00, 0x91, 0x3E, 0x00, 0x00, 0x90, 0x41, 0x7F, 0x00, 0x91, 0x38, 0x2B, 0x00,
        0x94, 0x29, 0x7F, 0x2D, 0x90, 0x41, 0x00, 0x00, 0x91, 0x38, 0x00, 0x00, 0x90, 0x41, 0x7F, 0x00,
        0x91, 0x38, 0x2B, 0x2D, 0x94, 0x29, 0x00, 0x00, 0x90, 0x41, 0x00, 0x00, 0x91, 0x38, 0x00, 0x00,
        0x90, 0x3E, 0x7F, 0x00, 0x91, 0x38, 0x2B, 0x00, 0x94, 0x2E, 0x7F, 0x2D, 0x90, 0x3E, 0x00, 0x00,
        0x91, 0x38, 0x00, 0x00, 0x90, 0x3E, 0x7F, 0x00, 0x91, 0x38, 0x2B, 0x2D, 0x94, 0x2E, 0x00, 0x00,
        0x90, 0x3E, 0x00, 0x00, 0x91, 0x38, 0x00, 0x00, 0x90, 0x41, 0x7F, 0x00, 0x91, 0x38, 0x2B, 0x00,
        0x94, 0x27, 0x7F, 0x2D, 0x90, 0x41, 0x00, 0x00, 0x91, 0x38, 0x00, 0x00, 0x90, 0x3F, 0x7F, 0x00,
        0x91, 0x37, 0x2B, 0x2D, 0x94, 0x27, 0x00, 0x2D, 0x90, 0x3F, 0x00, 0x00, 0x91, 0x37, 0x00, 0x00,
        0x90, 0x3F, 0x7F, 0x00, 0x91, 0x37, 0x2B, 0x2D, 0x94, 0x2E, 0x7F, 0x5A, 0x90, 0x3F, 0x00, 0x00,
        0x91, 0x37, 0x00, 0x00, 0x94, 0x2E, 0x00, 0x00, 0x91, 0x46, 0x2B, 0x00, 0x92, 0x43, 0x4A, 0x00,
        0x94, 0x2E, 0x7F, 0x5A, 0x91, 0x46, 0x00, 0x00, 0x92, 0x43, 0x00, 0x00, 0x94, 0x2E, 0x00, 0x00,
        0x90, 0x3F, 0x7F, 0x00, 0x91, 0x3C, 0x2B, 0x00, 0x92, 0x3A, 0x4A, 0x00, 0xC3, 0x36, 0x00, 0x93,
        0x37, 0x4A, 0x00, 0x94, 0x27, 0x7F, 0x5A, 0x90, 0x3F, 0x00, 0x00, 0x91, 0x3C, 0x00, 0x00, 0x92,
        0x3A, 0x00, 0x00, 0x93, 0x37, 0x00, 0x00, 0x94, 0x27, 0x00, 0x00, 0x90, 0x3F, 0x7F, 0x00, 0x91,
        0x3C, 0x2B, 0x00, 0x92, 0x3A, 0x4A, 0x00, 0x93, 0x37, 0x4A, 0x5A, 0x90, 0x3F, 0x00, 0x00, 0x91,
        0x3C, 0x00, 0x00, 0x92, 0x3A, 0x00, 0x00, 0x93, 0x37, 0x00, 0x00, 0x90, 0x3C, 0x7F, 0x00, 0x91,
        0x3A, 0x2B, 0x00, 0x92, 0x37, 0x4A, 0x00, 0x93, 0x33, 0x4A, 0x00, 0x94, 0x2E, 0x7F, 0x5A, 0x90,
        0x3C, 0x00, 0x00, 0x91, 0x3A, 0x00, 0x00, 0x92, 0x37, 0x00, 0x00, 0x93, 0x33, 0x00, 0x00, 0x94,
        0x2E, 0x00, 0x00, 0x90, 0x3C, 0x7F, 0x00, 0x91, 0x3A, 0x2B, 0x00, 0x92, 0x37, 0x4A, 0x00, 0x93,
        0x33, 0x4A, 0x2D, 0x90, 0x3C, 0x00, 0x00, 0x91, 0x3A, 0x00, 0x00, 0x92, 0x37, 0x00, 0x00, 0x93,
        0x33, 0x00, 0x00, 0x90, 0x3F, 0x7F, 0x00, 0x91, 0x3C, 0x2B, 0x00, 0x92, 0x38, 0x4A, 0x2D, 0x92,
        0x38, 0x00, 0x00, 0x92, 0x38, 0x4A, 0x00, 0x94, 0x29, 0x7F, 0x2D, 0x90, 0x3F, 0x00, 0x00, 0x91,
        0x3C, 0x00, 0x00, 0x92, 0x38, 0x00, 0x00, 0x90, 0x3F, 0x7F, 0x00, 0x91, 0x3C, 0x2B, 0x00, 0x92,
        0x38, 0x4A, 0x2D, 0x94, 0x29, 0x00, 0x2D, 0x90, 0x3F, 0x00, 0x00, 0x91, 0x3C, 0x00, 0x00, 0x92,
        0x38, 0x00, 0x00, 0x90, 0x3F, 0x7F, 0x00, 0x91, 0x3C, 0x2B, 0x00, 0x92, 0x38, 0x4A, 0x2D, 0x90,
        0x3F, 0x00, 0x00, 0x91, 0x3C, 0x00, 0x00, 0x92, 0x38, 0x00, 0x00, 0x90, 0x3C, 0x7F, 0x00, 0x91,
        0x38, 0x2B, 0x00, 0x92, 0x35, 0x4A, 0x00, 0x94, 0x2E, 0x7F, 0x2D, 0x90, 0x3C, 0x00, 0x00, 0x91,
        0x38, 0x00, 0x00, 0x92, 0x35, 0x00, 0x00, 0x90, 0x3C, 0x7F, 0x00, 0x91, 0x38, 0x2B, 0x00, 0x92,
        0x35, 0x4A, 0x2D, 0x94, 0x2E, 0x00, 0x00, 0x90, 0x3C, 0x00, 0x00, 0x91, 0x38, 0x00, 0x00, 0x92,
        0x35, 0x00, 0x00, 0x90, 0x3C, 0x7F, 0x00, 0x91, 0x38, 0x2B, 0x00, 0x92, 0x35, 0x4A, 0x2D, 0x90,
        0x3C, 0x00, 0x00, 0x91, 0x38, 0x00, 0x00, 0x92, 0x35, 0x00, 0x00, 0x90, 0x3C, 0x7F, 0x00, 0x91,
        0x38, 0x2B, 0x00, 0x92, 0x35, 0x4A, 0x2D, 0x90, 0x3C, 0x00, 0x00, 0x91, 0x38, 0x00, 0x00, 0x92,
        0x35, 0x00, 0x00, 0x90, 0x3F, 0x7F, 0x00, 0x91, 0x3C, 0x2B, 0x00, 0x92, 0x3A, 0x4A, 0x00, 0x93,
        0x37, 0x4A, 0x00, 0x94, 0x27, 0x7F, 0x5A, 0x90, 0x3F, 0x00, 0x00, 0x91, 0x3C, 0x00, 0x00, 0x92,
        0x3A, 0x00, 0x00, 0x93, 0x37, 0x00, 0x00, 0x94, 0x27, 0x00, 0x00, 0x90, 0x3F, 0x7F, 0x00, 0x91,
        0x3C, 0x2B, 0x00, 0x92, 0x3A, 0x4A, 0x00, 0x93, 0x37, 0x4A, 0x5A, 0x90, 0x3F, 0x00, 0x00, 0x91,
        0x3C, 0x00, 0x00, 0x92, 0x3A, 0x00, 0x00, 0x93, 0x37, 0x00, 0x00, 0x90, 0x3C, 0x7F, 0x00, 0x91,
        0x3A, 0x2B, 0x00, 0x92, 0x3A, 0x4A, 0x00, 0x93, 0x37, 0x4A, 0x00, 0x94, 0x2E, 0x7F, 0x5A, 0x90,
        0x3C, 0x00, 0x00, 0x91, 0x3A, 0x00, 0x00, 0x92, 0x3A, 0x00, 0x00, 0x93, 0x37, 0x00, 0x00, 0x94,
        0x2E, 0x00, 0x00, 0x90, 0x43, 0x7F, 0x00, 0x93, 0x33, 0x4A, 0x2D, 0x90, 0x43, 0x00, 0x00, 0x90,
        0x44, 0x7F, 0x2D, 0x93, 0x33, 0x00, 0x00, 0x90, 0x44, 0x00, 0x00, 0x91, 0x46, 0x2B, 0x00, 0x92,
        0x43, 0x4A, 0x00, 0x94, 0x29, 0x7F, 0x2D, 0x91, 0x46, 0x00, 0x00, 0x92, 0x43, 0x00, 0x00, 0x91,
        0x4B, 0x2B, 0x2D, 0x94, 0x29, 0x00, 0x00, 0x91, 0x4B, 0x00, 0x00, 0x91, 0x46, 0x2B, 0x00, 0x92,
        0x43, 0x4A, 0x00, 0x94, 0x29, 0x7F, 0x2D, 0x91, 0x46, 0x00, 0x00, 0x92, 0x43, 0x00, 0x00, 0x91,
        0x43, 0x2B, 0x2D, 0x94, 0x29, 0x00, 0x00, 0x91, 0x43, 0x00, 0x00, 0x91, 0x46, 0x2B, 0x00, 0x92,
        0x41, 0x4A, 0x00, 0x94, 0x2E, 0x7F, 0x5A, 0x91, 0x46, 0x00, 0x00, 0x92, 0x41, 0x00, 0x00, 0x94,
        0x2E, 0x00, 0x00, 0x90, 0x43, 0x7F, 0x2D, 0x90, 0x43, 0x00, 0x00, 0x90, 0x43, 0x7F, 0x2D, 0x91,
        0x3A, 0x2B, 0x00, 0x94, 0x27, 0x7F, 0x2D, 0x90, 0x43, 0x00, 0x00, 0x90, 0x43, 0x7F, 0x2D, 0x94,
        0x27, 0x00, 0x00, 0x90, 0x43, 0x00, 0x00, 0x90, 0x43, 0x7F, 0x2D, 0x90, 0x43, 0x00, 0x00, 0x90,
        0x43, 0x7F, 0x2D, 0x90, 0x43, 0x00, 0x00, 0x90, 0x43, 0x7F, 0x00, 0x94, 0x2E, 0x7F, 0x5A, 0x90,
        0x43, 0x00, 0x00, 0x94, 0x2E, 0x00, 0x00, 0x90, 0x41, 0x7F, 0x2D, 0x90, 0x41, 0x00, 0x00, 0x90,
        0x43, 0x7F, 0x2D, 0x91, 0x3A, 0x00, 0x00, 0x90, 0x43, 0x00, 0x00, 0x90, 0x44, 0x7F, 0x00, 0x91,
        0x3C, 0x2B, 0x00, 0x94, 0x2C, 0x7F, 0x2D, 0x90, 0x44, 0x00, 0x00, 0x91, 0x3C, 0x00, 0x00, 0x90,
        0x44, 0x7F, 0x2D, 0x94, 0x2C, 0x00, 0x00, 0x90, 0x44, 0x00, 0x00, 0x90, 0x44, 0x7F, 0x2D, 0x90,
        0x44, 0x00, 0x00, 0x90, 0x3C, 0x7F, 0x00, 0x91, 0x38, 0x2B, 0x2D, 0x91, 0x38, 0x00, 0x00, 0x94,
        0x27, 0x7F, 0x5A, 0x90, 0x3C, 0x00, 0x00, 0x94, 0x27, 0x00, 0x00, 0x94, 0x2C, 0x7F, 0x2D, 0x90,
        0x3F, 0x7F, 0x2D, 0x94, 0x2C, 0x00, 0x00, 0x90, 0x3F, 0x00, 0x00, 0x90, 0x3E, 0x7F, 0x00, 0x91,
        0x3C, 0x2B, 0x00, 0x94, 0x2E, 0x7F, 0x2D, 0x90, 0x3E, 0x00, 0x00, 0x90, 0x3E, 0x7F, 0x2D, 0x94,
        0x2E, 0x00, 0x00, 0x90, 0x3E, 0x00, 0x00, 0x90, 0x3E, 0x7F, 0x5A, 0x90, 0x3E, 0x00, 0x00, 0x90,
        0x3C, 0x7F, 0x00, 0x94, 0x29, 0x7F, 0x5A, 0x90, 0x3C, 0x00, 0x00, 0x94, 0x29, 0x00, 0x00, 0x90,
        0x3E, 0x7F, 0x2D, 0x90, 0x3E, 0x00, 0x00, 0x90, 0x3E, 0x7F, 0x2D, 0x91, 0x3C, 0x00, 0x00, 0x90,
        0x3E, 0x00, 0x00, 0x90, 0x3C, 0x7F, 0x00, 0x91, 0x3A, 0x2B, 0x00, 0x94, 0x27, 0x7F, 0x2D, 0x90,
        0x3C, 0x00, 0x00, 0x90, 0x3A, 0x7F, 0x2D, 0x94, 0x27, 0x00, 0x00, 0x90, 0x3A, 0x00, 0x00, 0x90,
        0x3A, 0x7F, 0x5A, 0x91, 0x3A, 0x00, 0x00, 0x90, 0x3A, 0x00, 0x00, 0x90, 0x3A, 0x7F, 0x00, 0x91,
        0x3A, 0x2B, 0x00, 0x94, 0x30, 0x7F, 0x5A, 0x90, 0x3A, 0x00, 0x00, 0x91, 0x3A, 0x00, 0x00, 0x94,
        0x30, 0x00, 0x00, 0x94, 0x2E, 0x7F, 0x5A, 0x94, 0x2E, 0x00, 0x00, 0x90, 0x43, 0x7F, 0x00, 0x91,
        0x3F, 0x2B, 0x00, 0x92, 0x3A, 0x4A, 0x00, 0x94, 0x27, 0x7F, 0x5A, 0x90, 0x43, 0x00, 0x00, 0x94,
        0x27, 0x00, 0x00, 0x90, 0x43, 0x7F, 0x2D, 0x90, 0x43, 0x00, 0x00, 0x90, 0x43, 0x7F, 0x2D, 0x91,
        0x3F, 0x00, 0x00, 0x90, 0x43, 0x00, 0x00, 0x90, 0x43, 0x7F, 0x00, 0x91, 0x3D, 0x2B, 0x00, 0x94,
        0x2E, 0x7F, 0x2D, 0x90, 0x43, 0x00, 0x00, 0x90, 0x41, 0x7F, 0x2D, 0x94, 0x2E, 0x00, 0x00, 0x90,
        0x41, 0x00, 0x00, 0x90, 0x43, 0x7F, 0x5A, 0x92, 0x3A, 0x00, 0x00, 0x91, 0x3D, 0x00, 0x00, 0x90,
        0x43, 0x00, 0x00, 0x90, 0x44, 0x7F, 0x00, 0x91, 0x3C, 0x2B, 0x00, 0x94, 0x2C, 0x7F, 0x5A, 0x90,
        0x44, 0x00, 0x00, 0x91, 0x3C, 0x00, 0x00, 0x94, 0x2C, 0x00, 0x00, 0x90, 0x44, 0x7F, 0x00, 0x91,
        0x3C, 0x2B, 0x2D, 0x90, 0x44, 0x00, 0x00, 0x91, 0x3C, 0x00, 0x00, 0x90, 0x48, 0x7F, 0x00, 0x91,
        0x3F, 0x2B, 0x2D, 0x94, 0x27, 0x7F, 0x2D, 0x90, 0x48, 0x00, 0x00, 0x91, 0x3F, 0x00, 0x00, 0x90,
        0x48, 0x7F, 0x2D, 0x94, 0x27, 0x00, 0x00, 0x94, 0x2C, 0x7F, 0x2D, 0x90, 0x48, 0x00, 0x00, 0x90,
        0x48, 0x7F, 0x2D, 0x94, 0x2C, 0x00, 0x00, 0x90, 0x48, 0x00, 0x00, 0x90, 0x46, 0x7F, 0x00, 0x91,
        0x3E, 0x2B, 0x00, 0x94, 0x2E, 0x7F, 0x2D, 0x90, 0x46, 0x00, 0x00, 0x90, 0x46, 0x7F, 0x2D, 0x94,
        0x2E, 0x00, 0x00, 0x90, 0x46, 0x00, 0x00, 0x90, 0x46, 0x7F, 0x5A, 0x91, 0x3E, 0x00, 0x00, 0x90,
        0x46, 0x00, 0x00, 0x90, 0x44, 0x7F, 0x00, 0x91, 0x3E, 0x2B, 0x00, 0x94, 0x29, 0x7F, 0x5A, 0x90,
        0x44, 0x00, 0x00, 0x94, 0x29, 0x00, 0x00, 0x90, 0x41, 0x7F, 0x5A, 0x91, 0x3E, 0x00, 0x00, 0x90,
        0x41, 0x00, 0x00, 0x90, 0x41, 0x7F, 0x00, 0x91, 0x3A, 0x2B, 0x00, 0x92, 0x37, 0x4A, 0x00, 0x94,
        0x27, 0x7F, 0x5A, 0x90, 0x41, 0x00, 0x00, 0x91, 0x3A, 0x00, 0x00, 0x92, 0x37, 0x00, 0x00, 0x94,
        0x27, 0x00, 0x00, 0x90, 0x3F, 0x7F, 0x00, 0x91, 0x3A, 0x2B, 0x00, 0x92, 0x37, 0x4A, 0x00, 0x94,
        0x2E, 0x7F, 0x2D, 0x90, 0x3F, 0x00, 0x00, 0x91, 0x3A, 0x00, 0x00, 0x92, 0x37, 0x00, 0x00, 0x90,
        0x3F, 0x7F, 0x00, 0x91, 0x3A, 0x2B, 0x00, 0x92, 0x37, 0x4A, 0x2D, 0x94, 0x2E, 0x00, 0x00, 0x90,
        0x3F, 0x00, 0x00, 0x91, 0x3A, 0x00, 0x00, 0x92, 0x37, 0x00, 0x00, 0x90, 0x3F, 0x7F, 0x00, 0x91,
        0x3A, 0x2B, 0x00, 0x92, 0x37, 0x4A, 0x00, 0x94, 0x27, 0x7F, 0x5A, 0x90, 0x3F, 0x00, 0x00, 0x91,
        0x3A, 0x00, 0x00, 0x92, 0x37, 0x00, 0x00, 0x94, 0x27, 0x00, 0x00, 0x90, 0x46, 0x7F, 0x00, 0x94,
        0x2E, 0x7F, 0x2D, 0x90, 0x46, 0x00, 0x00, 0x90, 0x46, 0x7F, 0x2D, 0x94, 0x2E, 0x00, 0x00, 0x90,
        0x46, 0x00, 0x00, 0x90, 0x41, 0x7F, 0x00, 0x91, 0x38, 0x2B, 0x00, 0x94, 0x27, 0x7F, 0x2D, 0x90,
        0x41, 0x00, 0x00, 0x91, 0x38, 0x00, 0x00, 0x90, 0x3F, 0x7F, 0x00, 0x91, 0x37, 0x2B, 0x2D, 0x94,
        0x27, 0x00, 0x2D, 0x90, 0x3F, 0x00, 0x00, 0x91, 0x37, 0x00, 0x00, 0x90, 0x3F, 0x7F, 0x00, 0x91,
        0x37, 0x2B, 0x2D, 0x94, 0x2E, 0x7F, 0x5A, 0x90, 0x3F, 0x00, 0x00, 0x91, 0x37, 0x00, 0x00, 0x94,
        0x2E, 0x00, 0x00, 0x90, 0x46, 0x7F, 0x00, 0x94, 0x2E, 0x7F, 0x2D, 0x90, 0x46, 0x00, 0x00, 0x90,
        0x46, 0x7F, 0x2D, 0x94, 0x2E, 0x00, 0x00, 0x90, 0x46, 0x00, 0x00, 0x90, 0x43, 0x7F, 0x00, 0x91,
        0x3A, 0x2B, 0x00, 0x94, 0x27, 0x7F, 0x2D, 0x90, 0x43, 0x00, 0x00, 0x91, 0x3A, 0x00, 0x00, 0x90,
        0x43, 0x7F, 0x00, 0x91, 0x3A, 0x2B, 0x2D, 0x94, 0x27, 0x00, 0x00, 0x90, 0x43, 0x00, 0x00, 0x91,
        0x3A, 0x00, 0x00, 0x90, 0x43, 0x7F, 0x00, 0x91, 0x3A, 0x2B, 0x2D, 0x90, 0x43, 0x00, 0x00, 0x91,
        0x3A, 0x00, 0x00, 0x90, 0x43, 0x7F, 0x00, 0x91, 0x3A, 0x2B, 0x2D, 0x90, 0x43, 0x00, 0x00, 0x91,
        0x3A, 0x00, 0x00, 0x90, 0x43, 0x7F, 0x00, 0x91, 0x3A, 0x2B, 0x00, 0x94, 0x2E, 0x7F, 0x2D, 0x90,
        0x43, 0x00, 0x00, 0x91, 0x3A, 0x00, 0x00, 0x90, 0x3F, 0x7F, 0x00, 0x91, 0x37, 0x2B, 0x2D, 0x94,
        0x2E, 0x00, 0x00, 0x90, 0x3F, 0x00, 0x00, 0x91, 0x37, 0x00, 0x00, 0x90, 0x41, 0x7F, 0x00, 0x91,
        0x38, 0x2B, 0x2D, 0x90, 0x41, 0x00, 0x00, 0x91, 0x38, 0x00, 0x00, 0x90, 0x43, 0x7F, 0x00, 0x91,
        0x3A, 0x2B, 0x2D, 0x90, 0x43, 0x00, 0x00, 0x91, 0x3A, 0x00, 0x00, 0x90, 0x44, 0x7F, 0x00, 0x91,
        0x3C, 0x2B, 0x00, 0x94, 0x2C, 0x7F, 0x2D, 0x90, 0x44, 0x00, 0x00, 0x91, 0x3C, 0x00, 0x00, 0x90,
        0x44, 0x7F, 0x00, 0x91, 0x3C, 0x2B, 0x2D, 0x94, 0x2C, 0x00, 0x2D, 0x90, 0x44, 0x00, 0x00, 0x91,
        0x3C, 0x00, 0x00, 0x90, 0x44, 0x7F, 0x00, 0x91, 0x3C, 0x2B, 0x2D, 0x94, 0x27, 0x7F, 0x5A, 0x90,
        0x44, 0x00, 0x00, 0x91, 0x3C, 0x00, 0x00, 0x94, 0x27, 0x00, 0x00, 0x90, 0x44, 0x7F, 0x00, 0x91,
        0x3C, 0x2B, 0x00, 0x94, 0x2C, 0x7F, 0x2D, 0x90, 0x44, 0x00, 0x00, 0x91, 0x3C, 0x00, 0x00, 0x90,
        0x44, 0x7F, 0x00, 0x91, 0x3C, 0x2B, 0x2D, 0x94, 0x2C, 0x00, 0x00, 0x90, 0x44, 0x00, 0x00, 0x91,
        0x3C, 0x00, 0x00, 0x90, 0x41, 0x7F, 0x00, 0x91, 0x38, 0x2B, 0x00, 0x94, 0x2E, 0x7F, 0x2D, 0x90,
        0x41, 0x00, 0x00, 0x91, 0x38, 0x00, 0x00, 0x90, 0x41, 0x7F, 0x00, 0x91, 0x38, 0x2B, 0x2D, 0x94,
        0x2E, 0x00, 0x00, 0x90, 0x41, 0x00, 0x00, 0x91, 0x38, 0x00, 0x00, 0x90, 0x41, 0x7F, 0x00, 0x91,
        0x38, 0x2B, 0x2D, 0x90, 0x41, 0x00, 0x00, 0x91, 0x38, 0x00, 0x00, 0x90, 0x41, 0x7F, 0x00, 0x91,
        0x38, 0x2B, 0x2D, 0x90, 0x41, 0x00, 0x00, 0x91, 0x38, 0x00, 0x00, 0x90, 0x41, 0x7F, 0x00, 0x91,
        0x38, 0x2B, 0x00, 0x94, 0x29, 0x7F, 0x2D, 0x90, 0x41, 0x00, 0x00, 0x91, 0x38, 0x00, 0x00, 0x90,
        0x3E, 0x7F, 0x00, 0x91, 0x35, 0x2B, 0x2D, 0x94, 0x29, 0x00, 0x00, 0x90, 0x3E, 0x00, 0x00, 0x91,
        0x35, 0x00, 0x00, 0x90, 0x3F, 0x7F, 0x00, 0x91, 0x37, 0x2B, 0x00, 0x94, 0x2E, 0x7F, 0x2D, 0x90,
        0x3F, 0x00, 0x00, 0x91, 0x37, 0x00, 0x00, 0x90, 0x41, 0x7F, 0x00, 0x91, 0x38, 0x2B, 0x2D, 0x94,
        0x2E, 0x00, 0x00, 0x90, 0x41, 0x00, 0x00, 0x91, 0x38, 0x00, 0x00, 0x90, 0x43, 0x7F, 0x00, 0x91,
        0x3A, 0x2B, 0x00, 0x94, 0x27, 0x7F, 0x2D, 0x90, 0x43, 0x00, 0x00, 0x91, 0x3A, 0x00, 0x00, 0x90,
        0x43, 0x7F, 0x00, 0x91, 0x3A, 0x2B, 0x2D, 0x94, 0x27, 0x00, 0x2D, 0x90, 0x43, 0x00, 0x00, 0x91,
        0x3A, 0x00, 0x00, 0x90, 0x43, 0x7F, 0x00, 0x91, 0x3A, 0x2B, 0x2D, 0x94, 0x30, 0x7F, 0x5A, 0x90,
        0x43, 0x00, 0x00, 0x91, 0x3A, 0x00, 0x00, 0x94, 0x30, 0x00, 0x00, 0x90, 0x46, 0x7F, 0x00, 0x94,
        0x2E, 0x7F, 0x2D, 0x90, 0x46, 0x00, 0x00, 0x90, 0x44, 0x7F, 0x2D, 0x94, 0x2E, 0x00, 0x00, 0x90,
        0x44, 0x00, 0x00, 0x90, 0x43, 0x7F, 0x00, 0x91, 0x3F, 0x2B, 0x00, 0x92, 0x3A, 0x4A, 0x00, 0x94,
        0x27, 0x7F, 0x5A, 0x90, 0x43, 0x00, 0x00, 0x91, 0x3F, 0x00, 0x00, 0x92, 0x3A, 0x00, 0x00, 0x94,
        0x27, 0x00, 0x00, 0x90, 0x43, 0x7F, 0x00, 0x91, 0x3F, 0x2B, 0x00, 0x92, 0x3A, 0x4A, 0x5A, 0x90,
        0x43, 0x00, 0x00, 0x91, 0x3F, 0x00, 0x00, 0x92, 0x3A, 0x00, 0x00, 0x90, 0x43, 0x7F, 0x00, 0x91,
        0x3F, 0x2B, 0x00, 0x92, 0x3A, 0x4A, 0x00, 0x94, 0x2E, 0x7F, 0x5A, 0x90, 0x43, 0x00, 0x00, 0x91,
        0x3F, 0x00, 0x00, 0x92, 0x3A, 0x00, 0x00, 0x94, 0x2E, 0x00, 0x00, 0x90, 0x41, 0x7F, 0x2D, 0x90,
        0x41, 0x00, 0x00, 0x90, 0x43, 0x7F, 0x2D, 0x90, 0x43, 0x00, 0x00, 0x90, 0x44, 0x7F, 0x00, 0x91,
        0x3F, 0x2B, 0x00, 0x92, 0x3C, 0x4A, 0x00, 0x94, 0x2C, 0x7F, 0x2D, 0x90, 0x44, 0x00, 0x00, 0x91,
        0x3F, 0x00, 0x00, 0x92, 0x3C, 0x00, 0x00, 0x90, 0x44, 0x7F, 0x00, 0x91, 0x3F, 0x2B, 0x00, 0x92,
        0x3C, 0x4A, 0x2D, 0x94, 0x2C, 0x00, 0x2D, 0x90, 0x44, 0x00, 0x00, 0x91, 0x3F, 0x00, 0x00, 0x92,
        0x3C, 0x00, 0x00, 0x90, 0x48, 0x7F, 0x00, 0x91, 0x44, 0x2B, 0x00, 0x92, 0x3F, 0x4A, 0x2D, 0x94,
        0x27, 0x7F, 0x5A, 0x90, 0x48, 0x00, 0x00, 0x91, 0x44, 0x00, 0x00, 0x92, 0x3F, 0x00, 0x00, 0x94,
        0x27, 0x00, 0x00, 0x90, 0x4A, 0x7F, 0x00, 0x94, 0x2C, 0x7F, 0x2D, 0x90, 0x4A, 0x00, 0x00, 0x90,
        0x48, 0x7F, 0x2D, 0x94, 0x2C, 0x00, 0x00, 0x90, 0x48, 0x00, 0x00, 0x90, 0x46, 0x7F, 0x00, 0x91,
        0x41, 0x2B, 0x00, 0x92, 0x3E, 0x4A, 0x00, 0x94, 0x2E, 0x7F, 0x2D, 0x90, 0x46, 0x00, 0x00, 0x90,
        0x46, 0x7F, 0x2D, 0x94, 0x2E, 0x00, 0x00, 0x90, 0x46, 0x00, 0x00, 0x90, 0x46, 0x7F, 0x2D, 0x90,
        0x46, 0x00, 0x00, 0x90, 0x46, 0x7F, 0x2D, 0x91, 0x41, 0x00, 0x00, 0x92, 0x3E, 0x00, 0x00, 0x90,
        0x46, 0x00, 0x00, 0x90, 0x48, 0x7F, 0x00, 0x91, 0x44, 0x2B, 0x00, 0x92, 0x41, 0x4A, 0x00, 0x94,
        0x29, 0x7F, 0x2D, 0x90, 0x48, 0x00, 0x00, 0x90, 0x48, 0x7F, 0x2D, 0x94, 0x29, 0x00, 0x00, 0x90,
        0x48, 0x00, 0x00, 0x90, 0x4A, 0x7F, 0x00, 0x94, 0x2E, 0x7F, 0x2D, 0x90, 0x4A, 0x00, 0x00, 0x90,
        0x4A, 0x7F, 0x2D, 0x91, 0x44, 0x00, 0x00, 0x92, 0x41, 0x00, 0x00, 0x94, 0x2E, 0x00, 0x00, 0x90,
        0x4A, 0x00, 0x00, 0x90, 0x4D, 0x7F, 0x00, 0x91, 0x46, 0x2B, 0x00, 0x92, 0x43, 0x4A, 0x00, 0x94,
        0x27, 0x7F, 0x2D, 0x90, 0x4D, 0x00, 0x00, 0x91, 0x46, 0x00, 0x00, 0x92, 0x43, 0x00, 0x00, 0x90,
        0x4B, 0x7F, 0x00, 0x91, 0x46, 0x2B, 0x00, 0x92, 0x43, 0x4A, 0x2D, 0x94, 0x27, 0x00, 0x00, 0x94,
        0x2E, 0x7F, 0x2D, 0x90, 0x4B, 0x00, 0x00, 0x91, 0x46, 0x00, 0x00, 0x92, 0x43, 0x00, 0x00, 0x90,
        0x4B, 0x7F, 0x00, 0x91, 0x46, 0x2B, 0x00, 0x92, 0x43, 0x4A, 0x2D, 0x94, 0x2E, 0x00, 0x00, 0x94,
        0x27, 0x7F, 0x5A, 0x90, 0x4B, 0x00, 0x00, 0x91, 0x46, 0x00, 0x00, 0x92, 0x43, 0x00, 0x00, 0x94,
        0x27, 0x00, 0x00, 0x91, 0x48, 0x2B, 0x00, 0x92, 0x46, 0x4A, 0x00, 0x93, 0x43, 0x4A, 0x00, 0x94,
        0x33, 0x7F, 0x2D, 0x91, 0x48, 0x00, 0x00, 0x92, 0x46, 0x00, 0x00, 0x93, 0x43, 0x00, 0x00, 0x94,
        0x33, 0x00, 0x00, 0x91, 0x48, 0x2B, 0x00, 0x92, 0x46, 0x4A, 0x00, 0x93, 0x43, 0x4A, 0x00, 0x94,
        0x33, 0x7F, 0x2D, 0x91, 0x48, 0x00, 0x00, 0x92, 0x46, 0x00, 0x00, 0x93, 0x43, 0x00, 0x00, 0x94,
        0x33, 0x00, 0x00, 0x90, 0x4B, 0x7F, 0x00, 0x91, 0x48, 0x2B, 0x00, 0x92, 0x46, 0x4A, 0x00, 0x93,
        0x43, 0x4A, 0x00, 0x94, 0x33, 0x7F, 0x2D, 0x90, 0x4B, 0x00, 0x00, 0x91, 0x48, 0x00, 0x00, 0x92,
        0x46, 0x00, 0x00, 0x93, 0x43, 0x00, 0x00, 0x94, 0x33, 0x00, 0x00, 0x90, 0x4B, 0x7F, 0x00, 0x91,
        0x48, 0x2B, 0x00, 0x92, 0x46, 0x4A, 0x00, 0x93, 0x43, 0x4A, 0x00, 0x94, 0x33, 0x7F, 0x2D, 0x90,
        0x4B, 0x00, 0x00, 0x91, 0x48, 0x00, 0x00, 0x92, 0x46, 0x00, 0x00, 0x93, 0x43, 0x00, 0x00, 0x94,
        0x33, 0x00, 0x00, 0x90, 0x4B, 0x7F, 0x00, 0x91, 0x48, 0x2B, 0x00, 0x92, 0x46, 0x4A, 0x00, 0x93,
        0x43, 0x4A, 0x00, 0x94, 0x33, 0x7F, 0x2D, 0x90, 0x4B, 0x00, 0x00, 0x91, 0x48, 0x00, 0x00, 0x92,
        0x46, 0x00, 0x00, 0x93, 0x43, 0x00, 0x00, 0x94, 0x33, 0x00, 0x00, 0x90, 0x4B, 0x7F, 0x00, 0x91,
        0x48, 0x2B, 0x00, 0x92, 0x46, 0x4A, 0x00, 0x93, 0x43, 0x4A, 0x00, 0x94, 0x33, 0x7F, 0x2D, 0x90,
        0x4B, 0x00, 0x00, 0x91, 0x48, 0x00, 0x00, 0x92, 0x46, 0x00, 0x00, 0x94, 0x33, 0x00, 0x00, 0x90,
        0x4B, 0x7F, 0x00, 0x91, 0x48, 0x2B, 0x00, 0x92, 0x46, 0x4A, 0x00, 0x94, 0x33, 0x7F, 0x2D, 0x93,
        0x43, 0x00, 0x2D, 0x90, 0x4B, 0x00, 0x00, 0x91, 0x48, 0x00, 0x00, 0x92, 0x46, 0x00, 0x00, 0x94,
        0x33, 0x00, 0x00, 0xFF, 0x2F, 0x00,
};*/

//great big beautiful tomorrow
/*        0x4D, 0x54, 0x68, 0x64, 0x00, 0x00, 0x00, 0x06, 0x00, 0x01, 0x00, 0x07, 0x00, 0x60, 0x4D, 0x54,
        0x72, 0x6B, 0x00, 0x00, 0x00, 0x13, 0x00, 0xFF, 0x58, 0x04, 0x04, 0x02, 0x60, 0x08, 0x00, 0xFF,
        0x51, 0x03, 0x0A, 0x67, 0x5A, 0x00, 0xFF, 0x2F, 0x00, 0x4D, 0x54, 0x72, 0x6B, 0x00, 0x00, 0x07,
        0x23, 0x00, 0xFF, 0x03, 0x21, 0x54, 0x68, 0x65, 0x72, 0x65, 0x27, 0x73, 0x20, 0x61, 0x20, 0x47,
        0x72, 0x65, 0x61, 0x74, 0x20, 0x42, 0x69, 0x67, 0x20, 0x42, 0x65, 0x61, 0x75, 0x74, 0x69, 0x66,
        0x75, 0x6C, 0x20, 0x54, 0x6F, 0x6D, 0x00, 0xB0, 0x00, 0x00, 0x00, 0xC0, 0x0B, 0x00, 0xB0, 0x0A,
        0x1D, 0x00, 0xFF, 0x58, 0x04, 0x04, 0x02, 0x60, 0x08, 0x00, 0xFF, 0x51, 0x03, 0x0A, 0x67, 0x5A,
        0x4C, 0x90, 0x48, 0x5F, 0x27, 0x80, 0x48, 0x00, 0x00, 0x90, 0x45, 0x5F, 0x26, 0x80, 0x45, 0x00,
        0x00, 0x90, 0x47, 0x5F, 0x4D, 0x80, 0x47, 0x00, 0x00, 0x90, 0x43, 0x5F, 0x4D, 0x80, 0x43, 0x00,
        0x00, 0x90, 0x45, 0x5F, 0x26, 0x80, 0x45, 0x00, 0x00, 0x90, 0x43, 0x5F, 0x27, 0x80, 0x43, 0x00,
        0x00, 0x90, 0x45, 0x5F, 0x26, 0x80, 0x45, 0x00, 0x00, 0x90, 0x47, 0x5F, 0x26, 0x80, 0x47, 0x00,
        0x00, 0x90, 0x45, 0x5F, 0x27, 0x80, 0x45, 0x00, 0x00, 0x90, 0x43, 0x5F, 0x82, 0x0D, 0x80, 0x43,
        0x00, 0x00, 0x90, 0x43, 0x5F, 0x25, 0x80, 0x43, 0x00, 0x01, 0x90, 0x43, 0x5F, 0x26, 0x80, 0x43,
        0x00, 0x00, 0x90, 0x43, 0x5F, 0x26, 0x80, 0x43, 0x00, 0x01, 0x90, 0x43, 0x5F, 0x26, 0x80, 0x43,
        0x00, 0x00, 0x90, 0x45, 0x5F, 0x27, 0x80, 0x45, 0x00, 0x00, 0x90, 0x43, 0x5F, 0x26, 0x80, 0x43,
        0x00, 0x00, 0x90, 0x45, 0x5F, 0x26, 0x80, 0x45, 0x00, 0x00, 0x90, 0x43, 0x5F, 0x27, 0x80, 0x43,
        0x00, 0x00, 0x90, 0x40, 0x5F, 0x81, 0x66, 0x80, 0x40, 0x00, 0x00, 0x90, 0x48, 0x5F, 0x27, 0x80,
        0x48, 0x00, 0x00, 0x90, 0x45, 0x5F, 0x26, 0x80, 0x45, 0x00, 0x00, 0x90, 0x47, 0x5F, 0x4D, 0x80,
        0x47, 0x00, 0x00, 0x90, 0x43, 0x5F, 0x4D, 0x80, 0x43, 0x00, 0x00, 0x90, 0x45, 0x5F, 0x26, 0x80,
        0x45, 0x00, 0x00, 0x90, 0x43, 0x5F, 0x26, 0x80, 0x43, 0x00, 0x00, 0x90, 0x45, 0x5F, 0x27, 0x80,
        0x45, 0x00, 0x00, 0x90, 0x47, 0x5F, 0x26, 0x80, 0x47, 0x00, 0x00, 0x90, 0x48, 0x5F, 0x27, 0x80,
        0x48, 0x00, 0x00, 0x90, 0x45, 0x5F, 0x81, 0x40, 0x80, 0x45, 0x00, 0x00, 0x90, 0x45, 0x5F, 0x26,
        0x80, 0x45, 0x00, 0x00, 0x90, 0x47, 0x5F, 0x26, 0x80, 0x47, 0x00, 0x00, 0x90, 0x48, 0x5F, 0x27,
        0x80, 0x48, 0x00, 0x00, 0x90, 0x48, 0x5F, 0x73, 0x80, 0x48, 0x00, 0x00, 0x90, 0x48, 0x5F, 0x26,
        0x80, 0x48, 0x00, 0x00, 0x90, 0x48, 0x5F, 0x27, 0x80, 0x48, 0x00, 0x00, 0x90, 0x47, 0x5F, 0x26,
        0x80, 0x47, 0x00, 0x00, 0x90, 0x45, 0x5F, 0x27, 0x80, 0x45, 0x00, 0x00, 0x90, 0x43, 0x5F, 0x82,
        0x0C, 0x80, 0x43, 0x00, 0x27, 0x90, 0x48, 0x5F, 0x4D, 0x80, 0x48, 0x00, 0x00, 0x90, 0x43, 0x5F,
        0x25, 0x80, 0x43, 0x00, 0x01, 0x90, 0x43, 0x5F, 0x26, 0x80, 0x43, 0x00, 0x00, 0x90, 0x43, 0x5F,
        0x74, 0x80, 0x43, 0x00, 0x00, 0x90, 0x3C, 0x5F, 0x26, 0x80, 0x3C, 0x00, 0x00, 0x90, 0x41, 0x5F,
        0x4D, 0x80, 0x41, 0x00, 0x00, 0x90, 0x3C, 0x5F, 0x4D, 0x80, 0x3C, 0x00, 0x00, 0x90, 0x45, 0x5F,
        0x73, 0x80, 0x45, 0x00, 0x00, 0x90, 0x48, 0x5F, 0x26, 0x80, 0x48, 0x00, 0x00, 0x90, 0x48, 0x5F,
        0x4D, 0x80, 0x48, 0x00, 0x00, 0x90, 0x43, 0x5F, 0x26, 0x80, 0x43, 0x00, 0x00, 0x90, 0x43, 0x5F,
        0x27, 0x80, 0x43, 0x00, 0x00, 0x90, 0x43, 0x5F, 0x73, 0x80, 0x43, 0x00, 0x00, 0x90, 0x3C, 0x5F,
        0x26, 0x80, 0x3C, 0x00, 0x00, 0x90, 0x41, 0x5F, 0x4D, 0x80, 0x41, 0x00, 0x00, 0x90, 0x3C, 0x5F,
        0x4D, 0x80, 0x3C, 0x00, 0x00, 0x90, 0x45, 0x5F, 0x72, 0x80, 0x45, 0x00, 0x01, 0x90, 0x45, 0x5F,
        0x27, 0x80, 0x45, 0x00, 0x00, 0x90, 0x45, 0x5F, 0x4C, 0x80, 0x45, 0x00, 0x00, 0x90, 0x44, 0x5F,
        0x26, 0x80, 0x44, 0x00, 0x01, 0x90, 0x44, 0x5F, 0x26, 0x80, 0x44, 0x00, 0x00, 0x90, 0x44, 0x5F,
        0x4D, 0x80, 0x44, 0x00, 0x00, 0x90, 0x45, 0x5F, 0x26, 0x80, 0x45, 0x00, 0x00, 0x90, 0x47, 0x5F,
        0x27, 0x80, 0x47, 0x00, 0x00, 0x90, 0x47, 0x5F, 0x73, 0x80, 0x47, 0x00, 0x00, 0x90, 0x45, 0x5F,
        0x26, 0x80, 0x45, 0x00, 0x00, 0x90, 0x45, 0x5F, 0x4C, 0x80, 0x45, 0x00, 0x01, 0x90, 0x45, 0x5F,
        0x26, 0x80, 0x45, 0x00, 0x01, 0x90, 0x45, 0x5F, 0x26, 0x80, 0x45, 0x00, 0x00, 0x90, 0x45, 0x5F,
        0x4D, 0x80, 0x45, 0x00, 0x00, 0x90, 0x47, 0x5F, 0x4D, 0x80, 0x47, 0x00, 0x00, 0x90, 0x48, 0x5F,
        0x72, 0x80, 0x48, 0x00, 0x01, 0x90, 0x48, 0x5F, 0x26, 0x80, 0x48, 0x00, 0x00, 0x90, 0x48, 0x5F,
        0x4D, 0x80, 0x48, 0x00, 0x00, 0x90, 0x47, 0x5F, 0x26, 0x80, 0x47, 0x00, 0x00, 0x90, 0x4A, 0x5F,
        0x27, 0x80, 0x4A, 0x00, 0x26, 0x90, 0x48, 0x5F, 0x26, 0x80, 0x48, 0x00, 0x01, 0x90, 0x48, 0x5F,
        0x26, 0x80, 0x48, 0x00, 0x00, 0x90, 0x45, 0x5F, 0x26, 0x80, 0x45, 0x00, 0x00, 0x90, 0x47, 0x5F,
        0x4D, 0x80, 0x47, 0x00, 0x00, 0x90, 0x43, 0x5F, 0x4D, 0x80, 0x43, 0x00, 0x00, 0x90, 0x45, 0x5F,
        0x26, 0x80, 0x45, 0x00, 0x00, 0x90, 0x43, 0x5F, 0x27, 0x80, 0x43, 0x00, 0x00, 0x90, 0x45, 0x5F,
        0x26, 0x80, 0x45, 0x00, 0x00, 0x90, 0x47, 0x5F, 0x27, 0x80, 0x47, 0x00, 0x00, 0x90, 0x45, 0x5F,
        0x26, 0x80, 0x45, 0x00, 0x00, 0x90, 0x43, 0x5F, 0x81, 0x66, 0x80, 0x43, 0x00, 0x27, 0x90, 0x43,
        0x5F, 0x25, 0x80, 0x43, 0x00, 0x01, 0x90, 0x43, 0x5F, 0x26, 0x80, 0x43, 0x00, 0x01, 0x90, 0x43,
        0x5F, 0x25, 0x80, 0x43, 0x00, 0x01, 0x90, 0x43, 0x5F, 0x26, 0x80, 0x43, 0x00, 0x00, 0x90, 0x45,
        0x5F, 0x27, 0x80, 0x45, 0x00, 0x00, 0x90, 0x43, 0x5F, 0x26, 0x80, 0x43, 0x00, 0x00, 0x90, 0x45,
        0x5F, 0x27, 0x80, 0x45, 0x00, 0x00, 0x90, 0x47, 0x5F, 0x26, 0x80, 0x47, 0x00, 0x00, 0x90, 0x48,
        0x5F, 0x81, 0x66, 0x80, 0x48, 0x00, 0x00, 0x90, 0x45, 0x5F, 0x27, 0x80, 0x45, 0x00, 0x00, 0x90,
        0x47, 0x5F, 0x26, 0x80, 0x47, 0x00, 0x00, 0x90, 0x48, 0x5F, 0x4D, 0x80, 0x48, 0x00, 0x00, 0x90,
        0x45, 0x5F, 0x4D, 0x80, 0x45, 0x00, 0x00, 0x90, 0x4A, 0x5F, 0x26, 0x80, 0x4A, 0x00, 0x00, 0x90,
        0x48, 0x5F, 0x27, 0x80, 0x48, 0x00, 0x00, 0x90, 0x47, 0x5F, 0x26, 0x80, 0x47, 0x00, 0x00, 0x90,
        0x45, 0x5F, 0x26, 0x80, 0x45, 0x00, 0x00, 0x90, 0x45, 0x5F, 0x27, 0x80, 0x45, 0x00, 0x00, 0x90,
        0x43, 0x5F, 0x82, 0x0D, 0x80, 0x43, 0x00, 0x00, 0x90, 0x45, 0x5F, 0x73, 0x80, 0x45, 0x00, 0x00,
        0x90, 0x48, 0x5F, 0x26, 0x80, 0x48, 0x00, 0x00, 0x90, 0x48, 0x5F, 0x4D, 0x80, 0x48, 0x00, 0x00,
        0x90, 0x47, 0x5F, 0x4D, 0x80, 0x47, 0x00, 0x00, 0x90, 0x48, 0x5F, 0x81, 0x40, 0x80, 0x48, 0x00,
        0x26, 0x90, 0x48, 0x5F, 0x27, 0x80, 0x48, 0x00, 0x00, 0x90, 0x45, 0x5F, 0x26, 0x80, 0x45, 0x00,
        0x00, 0x90, 0x47, 0x5F, 0x4D, 0x80, 0x47, 0x00, 0x00, 0x90, 0x43, 0x5F, 0x4D, 0x80, 0x43, 0x00,
        0x00, 0x90, 0x45, 0x5F, 0x26, 0x80, 0x45, 0x00, 0x00, 0x90, 0x43, 0x5F, 0x26, 0x80, 0x43, 0x00,
        0x00, 0x90, 0x45, 0x5F, 0x27, 0x80, 0x45, 0x00, 0x00, 0x90, 0x47, 0x5F, 0x26, 0x80, 0x47, 0x00,
        0x00, 0x90, 0x45, 0x5F, 0x27, 0x80, 0x45, 0x00, 0x00, 0x90, 0x43, 0x5F, 0x82, 0x0C, 0x80, 0x43,
        0x00, 0x00, 0x90, 0x43, 0x5F, 0x26, 0x80, 0x43, 0x00, 0x01, 0x90, 0x43, 0x5F, 0x25, 0x80, 0x43,
        0x00, 0x01, 0x90, 0x43, 0x5F, 0x26, 0x80, 0x43, 0x00, 0x01, 0x90, 0x43, 0x5F, 0x26, 0x80, 0x43,
        0x00, 0x00, 0x90, 0x45, 0x5F, 0x26, 0x80, 0x45, 0x00, 0x00, 0x90, 0x43, 0x5F, 0x27, 0x80, 0x43,
        0x00, 0x00, 0x90, 0x45, 0x5F, 0x26, 0x80, 0x45, 0x00, 0x00, 0x90, 0x43, 0x5F, 0x27, 0x80, 0x43,
        0x00, 0x00, 0x90, 0x40, 0x5F, 0x81, 0x66, 0x80, 0x40, 0x00, 0x00, 0x90, 0x48, 0x5F, 0x26, 0x80,
        0x48, 0x00, 0x00, 0x90, 0x45, 0x5F, 0x27, 0x80, 0x45, 0x00, 0x00, 0x90, 0x47, 0x5F, 0x4D, 0x80,
        0x47, 0x00, 0x00, 0x90, 0x43, 0x5F, 0x4C, 0x80, 0x43, 0x00, 0x00, 0x90, 0x45, 0x5F, 0x27, 0x80,
        0x45, 0x00, 0x00, 0x90, 0x43, 0x5F, 0x26, 0x80, 0x43, 0x00, 0x00, 0x90, 0x45, 0x5F, 0x27, 0x80,
        0x45, 0x00, 0x00, 0x90, 0x47, 0x5F, 0x26, 0x80, 0x47, 0x00, 0x00, 0x90, 0x48, 0x5F, 0x26, 0x80,
        0x48, 0x00, 0x00, 0x90, 0x45, 0x5F, 0x81, 0x40, 0x80, 0x45, 0x00, 0x00, 0x90, 0x45, 0x5F, 0x27,
        0x80, 0x45, 0x00, 0x00, 0x90, 0x47, 0x5F, 0x26, 0x80, 0x47, 0x00, 0x00, 0x90, 0x48, 0x5F, 0x27,
        0x80, 0x48, 0x00, 0x00, 0x90, 0x48, 0x5F, 0x73, 0x80, 0x48, 0x00, 0x00, 0x90, 0x48, 0x5F, 0x25,
        0x80, 0x48, 0x00, 0x01, 0x90, 0x48, 0x5F, 0x27, 0x80, 0x48, 0x00, 0x00, 0x90, 0x47, 0x5F, 0x26,
        0x80, 0x47, 0x00, 0x00, 0x90, 0x45, 0x5F, 0x26, 0x80, 0x45, 0x00, 0x00, 0x90, 0x43, 0x5F, 0x82,
        0x0D, 0x80, 0x43, 0x00, 0x27, 0x90, 0x48, 0x5F, 0x4C, 0x80, 0x48, 0x00, 0x00, 0x90, 0x43, 0x5F,
        0x26, 0x80, 0x43, 0x00, 0x01, 0x90, 0x43, 0x5F, 0x26, 0x80, 0x43, 0x00, 0x00, 0x90, 0x43, 0x5F,
        0x73, 0x80, 0x43, 0x00, 0x00, 0x90, 0x3C, 0x5F, 0x27, 0x80, 0x3C, 0x00, 0x00, 0x90, 0x41, 0x5F,
        0x4D, 0x80, 0x41, 0x00, 0x00, 0x90, 0x3C, 0x5F, 0x4C, 0x80, 0x3C, 0x00, 0x00, 0x90, 0x45, 0x5F,
        0x74, 0x80, 0x45, 0x00, 0x00, 0x90, 0x48, 0x5F, 0x26, 0x80, 0x48, 0x00, 0x00, 0x90, 0x48, 0x5F,
        0x4D, 0x80, 0x48, 0x00, 0x00, 0x90, 0x43, 0x5F, 0x25, 0x80, 0x43, 0x00, 0x01, 0x90, 0x43, 0x5F,
        0x27, 0x80, 0x43, 0x00, 0x00, 0x90, 0x43, 0x5F, 0x73, 0x80, 0x43, 0x00, 0x00, 0x90, 0x3C, 0x5F,
        0x26, 0x80, 0x3C, 0x00, 0x00, 0x90, 0x41, 0x5F, 0x4D, 0x80, 0x41, 0x00, 0x00, 0x90, 0x3C, 0x5F,
        0x4D, 0x80, 0x3C, 0x00, 0x00, 0x90, 0x45, 0x5F, 0x72, 0x80, 0x45, 0x00, 0x01, 0x90, 0x45, 0x5F,
        0x26, 0x80, 0x45, 0x00, 0x00, 0x90, 0x45, 0x5F, 0x4D, 0x80, 0x45, 0x00, 0x00, 0x90, 0x44, 0x5F,
        0x26, 0x80, 0x44, 0x00, 0x01, 0x90, 0x44, 0x5F, 0x26, 0x80, 0x44, 0x00, 0x00, 0x90, 0x44, 0x5F,
        0x4D, 0x80, 0x44, 0x00, 0x00, 0x90, 0x45, 0x5F, 0x26, 0x80, 0x45, 0x00, 0x00, 0x90, 0x47, 0x5F,
        0x27, 0x80, 0x47, 0x00, 0x00, 0x90, 0x47, 0x5F, 0x73, 0x80, 0x47, 0x00, 0x00, 0x90, 0x45, 0x5F,
        0x26, 0x80, 0x45, 0x00, 0x00, 0x90, 0x45, 0x5F, 0x4C, 0x80, 0x45, 0x00, 0x01, 0x90, 0x45, 0x5F,
        0x26, 0x80, 0x45, 0x00, 0x00, 0x90, 0x45, 0x5F, 0x27, 0x80, 0x45, 0x00, 0x00, 0x90, 0x45, 0x5F,
        0x4D, 0x80, 0x45, 0x00, 0x00, 0x90, 0x47, 0x5F, 0x4C, 0x80, 0x47, 0x00, 0x00, 0x90, 0x48, 0x5F,
        0x73, 0x80, 0x48, 0x00, 0x01, 0x90, 0x48, 0x5F, 0x26, 0x80, 0x48, 0x00, 0x00, 0x90, 0x48, 0x5F,
        0x4D, 0x80, 0x48, 0x00, 0x00, 0x90, 0x47, 0x5F, 0x26, 0x80, 0x47, 0x00, 0x00, 0x90, 0x4A, 0x5F,
        0x27, 0x80, 0x4A, 0x00, 0x26, 0x90, 0x48, 0x5F, 0x26, 0x80, 0x48, 0x00, 0x00, 0x90, 0x48, 0x5F,
        0x27, 0x80, 0x48, 0x00, 0x00, 0x90, 0x45, 0x5F, 0x26, 0x80, 0x45, 0x00, 0x00, 0x90, 0x47, 0x5F,
        0x4D, 0x80, 0x47, 0x00, 0x00, 0x90, 0x43, 0x5F, 0x4D, 0x80, 0x43, 0x00, 0x00, 0x90, 0x45, 0x5F,
        0x26, 0x80, 0x45, 0x00, 0x00, 0x90, 0x43, 0x5F, 0x27, 0x80, 0x43, 0x00, 0x00, 0x90, 0x45, 0x5F,
        0x26, 0x80, 0x45, 0x00, 0x00, 0x90, 0x47, 0x5F, 0x26, 0x80, 0x47, 0x00, 0x00, 0x90, 0x45, 0x5F,
        0x27, 0x80, 0x45, 0x00, 0x00, 0x90, 0x43, 0x5F, 0x81, 0x66, 0x80, 0x43, 0x00, 0x27, 0x90, 0x43,
        0x5F, 0x25, 0x80, 0x43, 0x00, 0x01, 0x90, 0x43, 0x5F, 0x26, 0x80, 0x43, 0x00, 0x00, 0x90, 0x43,
        0x5F, 0x26, 0x80, 0x43, 0x00, 0x01, 0x90, 0x43, 0x5F, 0x26, 0x80, 0x43, 0x00, 0x00, 0x90, 0x45,
        0x5F, 0x27, 0x80, 0x45, 0x00, 0x00, 0x90, 0x43, 0x5F, 0x26, 0x80, 0x43, 0x00, 0x00, 0x90, 0x45,
        0x5F, 0x26, 0x80, 0x45, 0x00, 0x00, 0x90, 0x47, 0x5F, 0x27, 0x80, 0x47, 0x00, 0x00, 0x90, 0x48,
        0x5F, 0x81, 0x66, 0x80, 0x48, 0x00, 0x00, 0x90, 0x45, 0x5F, 0x27, 0x80, 0x45, 0x00, 0x00, 0x90,
        0x47, 0x5F, 0x26, 0x80, 0x47, 0x00, 0x00, 0x90, 0x48, 0x5F, 0x4D, 0x80, 0x48, 0x00, 0x00, 0x90,
        0x45, 0x5F, 0x4D, 0x80, 0x45, 0x00, 0x00, 0x90, 0x4A, 0x5F, 0x26, 0x80, 0x4A, 0x00, 0x00, 0x90,
        0x48, 0x5F, 0x26, 0x80, 0x48, 0x00, 0x00, 0x90, 0x47, 0x5F, 0x27, 0x80, 0x47, 0x00, 0x00, 0x90,
        0x45, 0x5F, 0x26, 0x80, 0x45, 0x00, 0x00, 0x90, 0x45, 0x5F, 0x27, 0x80, 0x45, 0x00, 0x00, 0x90,
        0x43, 0x5F, 0x82, 0x0C, 0x80, 0x43, 0x00, 0x00, 0x90, 0x45, 0x5F, 0x74, 0x80, 0x45, 0x00, 0x00,
        0x90, 0x48, 0x5F, 0x26, 0x80, 0x48, 0x00, 0x00, 0x90, 0x48, 0x5F, 0x4D, 0x80, 0x48, 0x00, 0x00,
        0x90, 0x47, 0x5F, 0x4D, 0x80, 0x47, 0x00, 0x00, 0x90, 0x48, 0x5F, 0x81, 0x40, 0x80, 0x48, 0x00,
        0x00, 0xFF, 0x2F, 0x00, 0x4D, 0x54, 0x72, 0x6B, 0x00, 0x00, 0x06, 0x83, 0x00, 0xFF, 0x03, 0x21,
        0x46, 0x72, 0x6F, 0x6D, 0x20, 0x44, 0x69, 0x73, 0x6E, 0x65, 0x79, 0x27, 0x73, 0x20, 0x43, 0x61,
        0x72, 0x6F, 0x75, 0x73, 0x65, 0x6C, 0x20, 0x6F, 0x66, 0x20, 0x50, 0x72, 0x6F, 0x67, 0x72, 0x65,
        0x73, 0x00, 0xB1, 0x00, 0x00, 0x00, 0xC1, 0x49, 0x00, 0xB1, 0x0A, 0x54, 0x00, 0xFF, 0x58, 0x04,
        0x04, 0x02, 0x60, 0x08, 0x00, 0xFF, 0x51, 0x03, 0x0A, 0x67, 0x5A, 0x4C, 0x91, 0x41, 0x5F, 0x4D,
        0x81, 0x41, 0x00, 0x27, 0x91, 0x41, 0x5F, 0x26, 0x81, 0x41, 0x00, 0x26, 0x91, 0x41, 0x5F, 0x27,
        0x81, 0x41, 0x00, 0x26, 0x91, 0x41, 0x5F, 0x27, 0x81, 0x41, 0x00, 0x26, 0x91, 0x41, 0x5F, 0x26,
        0x81, 0x41, 0x00, 0x27, 0x91, 0x40, 0x5F, 0x26, 0x81, 0x40, 0x00, 0x27, 0x91, 0x40, 0x5F, 0x26,
        0x81, 0x40, 0x00, 0x26, 0x91, 0x40, 0x5F, 0x27, 0x81, 0x40, 0x00, 0x26, 0x91, 0x40, 0x5F, 0x27,
        0x81, 0x40, 0x00, 0x26, 0x91, 0x41, 0x5F, 0x26, 0x81, 0x41, 0x00, 0x27, 0x91, 0x41, 0x5F, 0x26,
        0x81, 0x41, 0x00, 0x27, 0x91, 0x41, 0x5F, 0x26, 0x81, 0x41, 0x00, 0x26, 0x91, 0x40, 0x5F, 0x27,
        0x81, 0x40, 0x00, 0x26, 0x91, 0x3C, 0x5F, 0x27, 0x81, 0x3C, 0x00, 0x26, 0x91, 0x3C, 0x5F, 0x26,
        0x81, 0x3C, 0x00, 0x27, 0x91, 0x3C, 0x5F, 0x26, 0x81, 0x3C, 0x00, 0x00, 0x91, 0x41, 0x5F, 0x4D,
        0x81, 0x41, 0x00, 0x26, 0x91, 0x41, 0x5F, 0x27, 0x81, 0x41, 0x00, 0x26, 0x91, 0x41, 0x5F, 0x27,
        0x81, 0x41, 0x00, 0x26, 0x91, 0x41, 0x5F, 0x26, 0x81, 0x41, 0x00, 0x27, 0x91, 0x40, 0x5F, 0x26,
        0x81, 0x40, 0x00, 0x27, 0x91, 0x40, 0x5F, 0x26, 0x81, 0x40, 0x00, 0x26, 0x91, 0x40, 0x5F, 0x27,
        0x81, 0x40, 0x00, 0x26, 0x91, 0x40, 0x5F, 0x27, 0x81, 0x40, 0x00, 0x26, 0x91, 0x40, 0x5F, 0x26,
        0x81, 0x40, 0x00, 0x27, 0x91, 0x45, 0x5F, 0x26, 0x81, 0x45, 0x00, 0x27, 0x91, 0x45, 0x5F, 0x26,
        0x81, 0x45, 0x00, 0x26, 0x91, 0x45, 0x5F, 0x27, 0x81, 0x45, 0x00, 0x26, 0x91, 0x41, 0x5F, 0x27,
        0x81, 0x41, 0x00, 0x26, 0x91, 0x41, 0x5F, 0x26, 0x81, 0x41, 0x00, 0x27, 0x91, 0x41, 0x5F, 0x26,
        0x81, 0x41, 0x00, 0x27, 0x91, 0x41, 0x5F, 0x26, 0x81, 0x41, 0x00, 0x26, 0x91, 0x41, 0x5F, 0x27,
        0x81, 0x41, 0x00, 0x26, 0x91, 0x43, 0x5F, 0x27, 0x81, 0x43, 0x00, 0x26, 0x91, 0x43, 0x5F, 0x26,
        0x81, 0x43, 0x00, 0x27, 0x91, 0x40, 0x5F, 0x26, 0x81, 0x40, 0x00, 0x27, 0x91, 0x3C, 0x5F, 0x26,
        0x81, 0x3C, 0x00, 0x26, 0x91, 0x3C, 0x5F, 0x27, 0x81, 0x3C, 0x00, 0x26, 0x91, 0x39, 0x5F, 0x27,
        0x81, 0x39, 0x00, 0x26, 0x91, 0x41, 0x5F, 0x26, 0x81, 0x41, 0x00, 0x27, 0x91, 0x45, 0x5F, 0x26,
        0x81, 0x45, 0x00, 0x27, 0x91, 0x43, 0x5F, 0x26, 0x81, 0x43, 0x00, 0x26, 0x91, 0x40, 0x5F, 0x27,
        0x81, 0x40, 0x00, 0x26, 0x91, 0x40, 0x5F, 0x27, 0x81, 0x40, 0x00, 0x26, 0x91, 0x3C, 0x5F, 0x26,
        0x81, 0x3C, 0x00, 0x27, 0x91, 0x3C, 0x5F, 0x26, 0x81, 0x3C, 0x00, 0x27, 0x91, 0x39, 0x5F, 0x26,
        0x81, 0x39, 0x00, 0x26, 0x91, 0x41, 0x5F, 0x27, 0x81, 0x41, 0x00, 0x26, 0x91, 0x41, 0x5F, 0x27,
        0x81, 0x41, 0x00, 0x26, 0x91, 0x40, 0x5F, 0x26, 0x81, 0x40, 0x00, 0x27, 0x91, 0x3C, 0x5F, 0x26,
        0x81, 0x3C, 0x00, 0x27, 0x91, 0x40, 0x5F, 0x26, 0x81, 0x40, 0x00, 0x26, 0x91, 0x44, 0x5F, 0x27,
        0x81, 0x44, 0x00, 0x26, 0x91, 0x40, 0x5F, 0x27, 0x81, 0x40, 0x00, 0x26, 0x91, 0x40, 0x5F, 0x26,
        0x81, 0x40, 0x00, 0x27, 0x91, 0x40, 0x5F, 0x26, 0x81, 0x40, 0x00, 0x27, 0x91, 0x40, 0x5F, 0x26,
        0x81, 0x40, 0x00, 0x26, 0x91, 0x42, 0x5F, 0x27, 0x81, 0x42, 0x00, 0x26, 0x91, 0x42, 0x5F, 0x27,
        0x81, 0x42, 0x00, 0x26, 0x91, 0x34, 0x5F, 0x26, 0x81, 0x34, 0x00, 0x27, 0x91, 0x34, 0x5F, 0x26,
        0x81, 0x34, 0x00, 0x27, 0x91, 0x44, 0x5F, 0x26, 0x81, 0x44, 0x00, 0x26, 0x91, 0x47, 0x5F, 0x27,
        0x81, 0x47, 0x00, 0x4D, 0x91, 0x41, 0x5F, 0x4C, 0x81, 0x41, 0x00, 0x27, 0x91, 0x37, 0x5F, 0x26,
        0x81, 0x37, 0x00, 0x27, 0x91, 0x37, 0x5F, 0x26, 0x81, 0x37, 0x00, 0x26, 0x91, 0x41, 0x5F, 0x27,
        0x81, 0x41, 0x00, 0x26, 0x91, 0x41, 0x5F, 0x27, 0x81, 0x41, 0x00, 0x26, 0x91, 0x40, 0x5F, 0x26,
        0x81, 0x40, 0x00, 0x27, 0x91, 0x40, 0x5F, 0x26, 0x81, 0x40, 0x00, 0x27, 0x91, 0x40, 0x5F, 0x26,
        0x81, 0x40, 0x00, 0x26, 0x91, 0x40, 0x5F, 0x27, 0x81, 0x40, 0x00, 0x26, 0x91, 0x41, 0x5F, 0x27,
        0x81, 0x41, 0x00, 0x26, 0x91, 0x41, 0x5F, 0x26, 0x81, 0x41, 0x00, 0x27, 0x91, 0x41, 0x5F, 0x26,
        0x81, 0x41, 0x00, 0x27, 0x91, 0x40, 0x5F, 0x26, 0x81, 0x40, 0x00, 0x26, 0x91, 0x40, 0x5F, 0x27,
        0x81, 0x40, 0x00, 0x26, 0x91, 0x40, 0x5F, 0x27, 0x81, 0x40, 0x00, 0x26, 0x91, 0x40, 0x5F, 0x26,
        0x81, 0x40, 0x00, 0x00, 0x91, 0x40, 0x5F, 0x4D, 0x81, 0x40, 0x00, 0x27, 0x91, 0x45, 0x5F, 0x26,
        0x81, 0x45, 0x00, 0x26, 0x91, 0x41, 0x5F, 0x27, 0x81, 0x41, 0x00, 0x26, 0x91, 0x45, 0x5F, 0x27,
        0x81, 0x45, 0x00, 0x26, 0x91, 0x3F, 0x5F, 0x26, 0x81, 0x3F, 0x00, 0x27, 0x91, 0x40, 0x5F, 0x26,
        0x81, 0x40, 0x00, 0x27, 0x91, 0x40, 0x5F, 0x26, 0x81, 0x40, 0x00, 0x26, 0x91, 0x40, 0x5F, 0x27,
        0x81, 0x40, 0x00, 0x26, 0x91, 0x40, 0x5F, 0x27, 0x81, 0x40, 0x00, 0x26, 0x91, 0x42, 0x5F, 0x26,
        0x81, 0x42, 0x00, 0x27, 0x91, 0x45, 0x5F, 0x26, 0x81, 0x45, 0x00, 0x27, 0x91, 0x44, 0x5F, 0x26,
        0x81, 0x44, 0x00, 0x26, 0x91, 0x43, 0x5F, 0x27, 0x81, 0x43, 0x00, 0x00, 0x91, 0x43, 0x5F, 0x26,
        0x81, 0x43, 0x00, 0x00, 0x91, 0x40, 0x5F, 0x13, 0x81, 0x40, 0x00, 0x00, 0x91, 0x41, 0x5F, 0x14,
        0x81, 0x41, 0x00, 0x00, 0x91, 0x43, 0x5F, 0x13, 0x81, 0x43, 0x00, 0x00, 0x91, 0x44, 0x5F, 0x13,
        0x81, 0x44, 0x00, 0x00, 0x91, 0x45, 0x5F, 0x13, 0x81, 0x45, 0x00, 0x00, 0x91, 0x47, 0x5F, 0x13,
        0x81, 0x47, 0x00, 0x00, 0x91, 0x43, 0x5F, 0x27, 0x81, 0x43, 0x00, 0x26, 0x91, 0x41, 0x5F, 0x4D,
        0x81, 0x41, 0x00, 0x26, 0x91, 0x41, 0x5F, 0x27, 0x81, 0x41, 0x00, 0x26, 0x91, 0x41, 0x5F, 0x27,
        0x81, 0x41, 0x00, 0x26, 0x91, 0x41, 0x5F, 0x26, 0x81, 0x41, 0x00, 0x27, 0x91, 0x41, 0x5F, 0x26,
        0x81, 0x41, 0x00, 0x27, 0x91, 0x40, 0x5F, 0x26, 0x81, 0x40, 0x00, 0x26, 0x91, 0x40, 0x5F, 0x27,
        0x81, 0x40, 0x00, 0x26, 0x91, 0x40, 0x5F, 0x27, 0x81, 0x40, 0x00, 0x26, 0x91, 0x40, 0x5F, 0x26,
        0x81, 0x40, 0x00, 0x27, 0x91, 0x41, 0x5F, 0x26, 0x81, 0x41, 0x00, 0x27, 0x91, 0x41, 0x5F, 0x26,
        0x81, 0x41, 0x00, 0x26, 0x91, 0x41, 0x5F, 0x27, 0x81, 0x41, 0x00, 0x26, 0x91, 0x40, 0x5F, 0x27,
        0x81, 0x40, 0x00, 0x26, 0x91, 0x3C, 0x5F, 0x26, 0x81, 0x3C, 0x00, 0x27, 0x91, 0x3C, 0x5F, 0x26,
        0x81, 0x3C, 0x00, 0x27, 0x91, 0x3C, 0x5F, 0x26, 0x81, 0x3C, 0x00, 0x00, 0x91, 0x41, 0x5F, 0x4D,
        0x81, 0x41, 0x00, 0x26, 0x91, 0x41, 0x5F, 0x27, 0x81, 0x41, 0x00, 0x26, 0x91, 0x41, 0x5F, 0x26,
        0x81, 0x41, 0x00, 0x27, 0x91, 0x41, 0x5F, 0x26, 0x81, 0x41, 0x00, 0x27, 0x91, 0x40, 0x5F, 0x26,
        0x81, 0x40, 0x00, 0x26, 0x91, 0x40, 0x5F, 0x27, 0x81, 0x40, 0x00, 0x26, 0x91, 0x40, 0x5F, 0x27,
        0x81, 0x40, 0x00, 0x26, 0x91, 0x40, 0x5F, 0x26, 0x81, 0x40, 0x00, 0x27, 0x91, 0x40, 0x5F, 0x26,
        0x81, 0x40, 0x00, 0x27, 0x91, 0x45, 0x5F, 0x26, 0x81, 0x45, 0x00, 0x26, 0x91, 0x45, 0x5F, 0x27,
        0x81, 0x45, 0x00, 0x26, 0x91, 0x45, 0x5F, 0x27, 0x81, 0x45, 0x00, 0x26, 0x91, 0x41, 0x5F, 0x26,
        0x81, 0x41, 0x00, 0x27, 0x91, 0x41, 0x5F, 0x26, 0x81, 0x41, 0x00, 0x27, 0x91, 0x41, 0x5F, 0x26,
        0x81, 0x41, 0x00, 0x26, 0x91, 0x41, 0x5F, 0x27, 0x81, 0x41, 0x00, 0x26, 0x91, 0x41, 0x5F, 0x27,
        0x81, 0x41, 0x00, 0x26, 0x91, 0x43, 0x5F, 0x26, 0x81, 0x43, 0x00, 0x27, 0x91, 0x43, 0x5F, 0x26,
        0x81, 0x43, 0x00, 0x27, 0x91, 0x40, 0x5F, 0x26, 0x81, 0x40, 0x00, 0x26, 0x91, 0x3C, 0x5F, 0x27,
        0x81, 0x3C, 0x00, 0x26, 0x91, 0x3C, 0x5F, 0x27, 0x81, 0x3C, 0x00, 0x26, 0x91, 0x39, 0x5F, 0x26,
        0x81, 0x39, 0x00, 0x27, 0x91, 0x41, 0x5F, 0x26, 0x81, 0x41, 0x00, 0x27, 0x91, 0x45, 0x5F, 0x26,
        0x81, 0x45, 0x00, 0x26, 0x91, 0x43, 0x5F, 0x27, 0x81, 0x43, 0x00, 0x26, 0x91, 0x40, 0x5F, 0x27,
        0x81, 0x40, 0x00, 0x26, 0x91, 0x40, 0x5F, 0x26, 0x81, 0x40, 0x00, 0x27, 0x91, 0x3C, 0x5F, 0x26,
        0x81, 0x3C, 0x00, 0x27, 0x91, 0x3C, 0x5F, 0x26, 0x81, 0x3C, 0x00, 0x26, 0x91, 0x39, 0x5F, 0x27,
        0x81, 0x39, 0x00, 0x26, 0x91, 0x41, 0x5F, 0x27, 0x81, 0x41, 0x00, 0x26, 0x91, 0x41, 0x5F, 0x26,
        0x81, 0x41, 0x00, 0x27, 0x91, 0x40, 0x5F, 0x26, 0x81, 0x40, 0x00, 0x27, 0x91, 0x3C, 0x5F, 0x26,
        0x81, 0x3C, 0x00, 0x26, 0x91, 0x40, 0x5F, 0x27, 0x81, 0x40, 0x00, 0x26, 0x91, 0x44, 0x5F, 0x27,
        0x81, 0x44, 0x00, 0x26, 0x91, 0x40, 0x5F, 0x26, 0x81, 0x40, 0x00, 0x27, 0x91, 0x40, 0x5F, 0x26,
        0x81, 0x40, 0x00, 0x27, 0x91, 0x40, 0x5F, 0x26, 0x81, 0x40, 0x00, 0x26, 0x91, 0x40, 0x5F, 0x27,
        0x81, 0x40, 0x00, 0x26, 0x91, 0x42, 0x5F, 0x27, 0x81, 0x42, 0x00, 0x26, 0x91, 0x42, 0x5F, 0x26,
        0x81, 0x42, 0x00, 0x27, 0x91, 0x34, 0x5F, 0x26, 0x81, 0x34, 0x00, 0x27, 0x91, 0x34, 0x5F, 0x26,
        0x81, 0x34, 0x00, 0x26, 0x91, 0x44, 0x5F, 0x27, 0x81, 0x44, 0x00, 0x26, 0x91, 0x47, 0x5F, 0x27,
        0x81, 0x47, 0x00, 0x4C, 0x91, 0x41, 0x5F, 0x4D, 0x81, 0x41, 0x00, 0x27, 0x91, 0x37, 0x5F, 0x26,
        0x81, 0x37, 0x00, 0x26, 0x91, 0x37, 0x5F, 0x27, 0x81, 0x37, 0x00, 0x26, 0x91, 0x41, 0x5F, 0x27,
        0x81, 0x41, 0x00, 0x26, 0x91, 0x41, 0x5F, 0x26, 0x81, 0x41, 0x00, 0x27, 0x91, 0x40, 0x5F, 0x26,
        0x81, 0x40, 0x00, 0x27, 0x91, 0x40, 0x5F, 0x26, 0x81, 0x40, 0x00, 0x26, 0x91, 0x40, 0x5F, 0x27,
        0x81, 0x40, 0x00, 0x26, 0x91, 0x40, 0x5F, 0x27, 0x81, 0x40, 0x00, 0x26, 0x91, 0x41, 0x5F, 0x26,
        0x81, 0x41, 0x00, 0x27, 0x91, 0x41, 0x5F, 0x26, 0x81, 0x41, 0x00, 0x27, 0x91, 0x41, 0x5F, 0x26,
        0x81, 0x41, 0x00, 0x26, 0x91, 0x40, 0x5F, 0x27, 0x81, 0x40, 0x00, 0x26, 0x91, 0x40, 0x5F, 0x27,
        0x81, 0x40, 0x00, 0x26, 0x91, 0x40, 0x5F, 0x26, 0x81, 0x40, 0x00, 0x27, 0x91, 0x40, 0x5F, 0x25,
        0x81, 0x40, 0x00, 0x01, 0x91, 0x40, 0x5F, 0x4D, 0x81, 0x40, 0x00, 0x26, 0x91, 0x45, 0x5F, 0x27,
        0x81, 0x45, 0x00, 0x26, 0x91, 0x41, 0x5F, 0x27, 0x81, 0x41, 0x00, 0x26, 0x91, 0x45, 0x5F, 0x26,
        0x81, 0x45, 0x00, 0x27, 0x91, 0x3F, 0x5F, 0x26, 0x81, 0x3F, 0x00, 0x27, 0x91, 0x40, 0x5F, 0x26,
        0x81, 0x40, 0x00, 0x26, 0x91, 0x40, 0x5F, 0x27, 0x81, 0x40, 0x00, 0x26, 0x91, 0x40, 0x5F, 0x27,
        0x81, 0x40, 0x00, 0x26, 0x91, 0x40, 0x5F, 0x26, 0x81, 0x40, 0x00, 0x27, 0x91, 0x42, 0x5F, 0x26,
        0x81, 0x42, 0x00, 0x27, 0x91, 0x45, 0x5F, 0x26, 0x81, 0x45, 0x00, 0x26, 0x91, 0x44, 0x5F, 0x27,
        0x81, 0x44, 0x00, 0x26, 0x91, 0x43, 0x5F, 0x27, 0x81, 0x43, 0x00, 0x00, 0x91, 0x43, 0x5F, 0x26,
        0x81, 0x43, 0x00, 0x00, 0x91, 0x40, 0x5F, 0x13, 0x81, 0x40, 0x00, 0x00, 0x91, 0x41, 0x5F, 0x13,
        0x81, 0x41, 0x00, 0x00, 0x91, 0x43, 0x5F, 0x14, 0x81, 0x43, 0x00, 0x00, 0x91, 0x44, 0x5F, 0x13,
        0x81, 0x44, 0x00, 0x00, 0x91, 0x45, 0x5F, 0x13, 0x81, 0x45, 0x00, 0x00, 0x91, 0x47, 0x5F, 0x13,
        0x81, 0x47, 0x00, 0x00, 0x91, 0x45, 0x5F, 0x27, 0x81, 0x45, 0x00, 0x00, 0xFF, 0x2F, 0x00, 0x4D,
        0x54, 0x72, 0x6B, 0x00, 0x00, 0x05, 0xE7, 0x00, 0xFF, 0x03, 0x21, 0x57, 0x6F, 0x72, 0x64, 0x73,
        0x20, 0x61, 0x6E, 0x64, 0x20, 0x4D, 0x75, 0x73, 0x69, 0x63, 0x20, 0x62, 0x79, 0x20, 0x52, 0x69,
        0x63, 0x68, 0x61, 0x72, 0x64, 0x20, 0x4D, 0x2E, 0x20, 0x61, 0x6E, 0x64, 0x00, 0xB2, 0x00, 0x00,
        0x00, 0xC2, 0x35, 0x00, 0xB2, 0x0A, 0x4F, 0x00, 0xFF, 0x58, 0x04, 0x04, 0x02, 0x60, 0x08, 0x00,
        0xFF, 0x51, 0x03, 0x0A, 0x67, 0x5A, 0x81, 0x40, 0x92, 0x3E, 0x5F, 0x26, 0x82, 0x3E, 0x00, 0x26,
        0x92, 0x3B, 0x5F, 0x27, 0x82, 0x3B, 0x00, 0x26, 0x92, 0x3B, 0x5F, 0x27, 0x82, 0x3B, 0x00, 0x00,
        0x92, 0x3E, 0x5F, 0x26, 0x82, 0x3E, 0x00, 0x4D, 0x92, 0x3C, 0x5F, 0x26, 0x82, 0x3C, 0x00, 0x27,
        0x92, 0x3C, 0x5F, 0x26, 0x82, 0x3C, 0x00, 0x26, 0x92, 0x3A, 0x5F, 0x27, 0x82, 0x3A, 0x00, 0x26,
        0x92, 0x3A, 0x5F, 0x27, 0x82, 0x3A, 0x00, 0x26, 0x92, 0x3C, 0x5F, 0x26, 0x82, 0x3C, 0x00, 0x27,
        0x92, 0x3B, 0x5F, 0x26, 0x82, 0x3B, 0x00, 0x27, 0x92, 0x3C, 0x5F, 0x26, 0x82, 0x3C, 0x00, 0x26,
        0x92, 0x3B, 0x5F, 0x27, 0x82, 0x3B, 0x00, 0x26, 0x92, 0x37, 0x5F, 0x27, 0x82, 0x37, 0x00, 0x26,
        0x92, 0x37, 0x5F, 0x26, 0x82, 0x37, 0x00, 0x27, 0x92, 0x3B, 0x5F, 0x26, 0x82, 0x3B, 0x00, 0x73,
        0x92, 0x3E, 0x5F, 0x27, 0x82, 0x3E, 0x00, 0x26, 0x92, 0x3B, 0x5F, 0x27, 0x82, 0x3B, 0x00, 0x26,
        0x92, 0x3B, 0x5F, 0x26, 0x82, 0x3B, 0x00, 0x27, 0x92, 0x3E, 0x5F, 0x26, 0x82, 0x3E, 0x00, 0x27,
        0x92, 0x3C, 0x5F, 0x26, 0x82, 0x3C, 0x00, 0x26, 0x92, 0x3C, 0x5F, 0x27, 0x82, 0x3C, 0x00, 0x26,
        0x92, 0x3C, 0x5F, 0x27, 0x82, 0x3C, 0x00, 0x26, 0x92, 0x3C, 0x5F, 0x26, 0x82, 0x3C, 0x00, 0x27,
        0x92, 0x42, 0x5F, 0x26, 0x82, 0x42, 0x00, 0x27, 0x92, 0x42, 0x5F, 0x26, 0x82, 0x42, 0x00, 0x26,
        0x92, 0x42, 0x5F, 0x27, 0x82, 0x42, 0x00, 0x26, 0x92, 0x3C, 0x5F, 0x27, 0x82, 0x3C, 0x00, 0x26,
        0x92, 0x3E, 0x5F, 0x26, 0x82, 0x3E, 0x00, 0x27, 0x92, 0x3E, 0x5F, 0x26, 0x82, 0x3E, 0x00, 0x27,
        0x92, 0x3E, 0x5F, 0x26, 0x82, 0x3E, 0x00, 0x26, 0x92, 0x3E, 0x5F, 0x27, 0x82, 0x3E, 0x00, 0x26,
        0x92, 0x40, 0x5F, 0x27, 0x82, 0x40, 0x00, 0x26, 0x92, 0x40, 0x5F, 0x26, 0x82, 0x40, 0x00, 0x27,
        0x92, 0x3A, 0x5F, 0x26, 0x82, 0x3A, 0x00, 0x27, 0x92, 0x3A, 0x5F, 0x26, 0x82, 0x3A, 0x00, 0x26,
        0x92, 0x39, 0x5F, 0x27, 0x82, 0x39, 0x00, 0x26, 0x92, 0x35, 0x5F, 0x27, 0x82, 0x35, 0x00, 0x26,
        0x92, 0x41, 0x5F, 0x26, 0x82, 0x41, 0x00, 0x74, 0x92, 0x40, 0x5F, 0x26, 0x82, 0x40, 0x00, 0x26,
        0x92, 0x3C, 0x5F, 0x27, 0x82, 0x3C, 0x00, 0x26, 0x92, 0x3A, 0x5F, 0x27, 0x82, 0x3A, 0x00, 0x00,
        0x92, 0x3A, 0x5F, 0x26, 0x82, 0x3A, 0x00, 0x4D, 0x92, 0x39, 0x5F, 0x26, 0x82, 0x39, 0x00, 0x27,
        0x92, 0x35, 0x5F, 0x26, 0x82, 0x35, 0x00, 0x26, 0x92, 0x3C, 0x5F, 0x27, 0x82, 0x3C, 0x00, 0x26,
        0x92, 0x3C, 0x5F, 0x27, 0x82, 0x3C, 0x00, 0x26, 0x92, 0x3E, 0x5F, 0x26, 0x82, 0x3E, 0x00, 0x27,
        0x92, 0x3E, 0x5F, 0x26, 0x82, 0x3E, 0x00, 0x27, 0x92, 0x3E, 0x5F, 0x26, 0x82, 0x3E, 0x00, 0x26,
        0x92, 0x3E, 0x5F, 0x27, 0x82, 0x3E, 0x00, 0x26, 0x92, 0x3C, 0x5F, 0x27, 0x82, 0x3C, 0x00, 0x26,
        0x92, 0x3C, 0x5F, 0x26, 0x82, 0x3C, 0x00, 0x27, 0x92, 0x3C, 0x5F, 0x26, 0x82, 0x3C, 0x00, 0x27,
        0x92, 0x3C, 0x5F, 0x26, 0x82, 0x3C, 0x00, 0x26, 0x92, 0x3C, 0x5F, 0x27, 0x82, 0x3C, 0x00, 0x26,
        0x92, 0x3E, 0x5F, 0x27, 0x82, 0x3E, 0x00, 0x26, 0x92, 0x42, 0x5F, 0x26, 0x82, 0x42, 0x00, 0x27,
        0x92, 0x42, 0x5F, 0x26, 0x82, 0x42, 0x00, 0x27, 0x92, 0x41, 0x5F, 0x26, 0x82, 0x41, 0x00, 0x26,
        0x92, 0x41, 0x5F, 0x27, 0x82, 0x41, 0x00, 0x81, 0x40, 0x92, 0x3E, 0x5F, 0x26, 0x82, 0x3E, 0x00,
        0x27, 0x92, 0x3B, 0x5F, 0x26, 0x82, 0x3B, 0x00, 0x26, 0x92, 0x3B, 0x5F, 0x27, 0x82, 0x3B, 0x00,
        0x26, 0x92, 0x3E, 0x5F, 0x27, 0x82, 0x3E, 0x00, 0x26, 0x92, 0x3C, 0x5F, 0x26, 0x82, 0x3C, 0x00,
        0x27, 0x92, 0x3C, 0x5F, 0x26, 0x82, 0x3C, 0x00, 0x27, 0x92, 0x3C, 0x5F, 0x26, 0x82, 0x3C, 0x00,
        0x26, 0x92, 0x3C, 0x5F, 0x27, 0x82, 0x3C, 0x00, 0x26, 0x92, 0x3B, 0x5F, 0x27, 0x82, 0x3B, 0x00,
        0x26, 0x92, 0x3B, 0x5F, 0x26, 0x82, 0x3B, 0x00, 0x27, 0x92, 0x3C, 0x5F, 0x26, 0x82, 0x3C, 0x00,
        0x27, 0x92, 0x3E, 0x5F, 0x26, 0x82, 0x3E, 0x00, 0x26, 0x92, 0x3C, 0x5F, 0x27, 0x82, 0x3C, 0x00,
        0x26, 0x92, 0x3C, 0x5F, 0x27, 0x82, 0x3C, 0x00, 0x26, 0x92, 0x3C, 0x5F, 0x26, 0x82, 0x3C, 0x00,
        0x00, 0x92, 0x3C, 0x5F, 0x4D, 0x82, 0x3C, 0x00, 0x27, 0x92, 0x41, 0x5F, 0x26, 0x82, 0x41, 0x00,
        0x26, 0x92, 0x3C, 0x5F, 0x27, 0x82, 0x3C, 0x00, 0x26, 0x92, 0x3F, 0x5F, 0x27, 0x82, 0x3F, 0x00,
        0x00, 0x92, 0x3C, 0x5F, 0x26, 0x82, 0x3C, 0x00, 0x4D, 0x92, 0x3C, 0x5F, 0x26, 0x82, 0x3C, 0x00,
        0x27, 0x92, 0x3C, 0x5F, 0x26, 0x82, 0x3C, 0x00, 0x26, 0x92, 0x3D, 0x5F, 0x27, 0x82, 0x3D, 0x00,
        0x26, 0x92, 0x3D, 0x5F, 0x27, 0x82, 0x3D, 0x00, 0x26, 0x92, 0x3C, 0x5F, 0x26, 0x82, 0x3C, 0x00,
        0x27, 0x92, 0x42, 0x5F, 0x26, 0x82, 0x42, 0x00, 0x27, 0x92, 0x41, 0x5F, 0x26, 0x82, 0x41, 0x00,
        0x26, 0x92, 0x41, 0x5F, 0x27, 0x82, 0x41, 0x00, 0x00, 0x92, 0x40, 0x5F, 0x26, 0x82, 0x40, 0x00,
        0x73, 0x92, 0x40, 0x5F, 0x27, 0x82, 0x40, 0x00, 0x81, 0x19, 0x92, 0x3E, 0x5F, 0x27, 0x82, 0x3E,
        0x00, 0x26, 0x92, 0x3B, 0x5F, 0x27, 0x82, 0x3B, 0x00, 0x26, 0x92, 0x3B, 0x5F, 0x26, 0x82, 0x3B,
        0x00, 0x00, 0x92, 0x3E, 0x5F, 0x27, 0x82, 0x3E, 0x00, 0x4D, 0x92, 0x3C, 0x5F, 0x26, 0x82, 0x3C,
        0x00, 0x26, 0x92, 0x3C, 0x5F, 0x27, 0x82, 0x3C, 0x00, 0x26, 0x92, 0x3A, 0x5F, 0x27, 0x82, 0x3A,
        0x00, 0x26, 0x92, 0x3A, 0x5F, 0x26, 0x82, 0x3A, 0x00, 0x27, 0x92, 0x3C, 0x5F, 0x26, 0x82, 0x3C,
        0x00, 0x27, 0x92, 0x3B, 0x5F, 0x26, 0x82, 0x3B, 0x00, 0x26, 0x92, 0x3C, 0x5F, 0x27, 0x82, 0x3C,
        0x00, 0x26, 0x92, 0x3B, 0x5F, 0x27, 0x82, 0x3B, 0x00, 0x26, 0x92, 0x37, 0x5F, 0x26, 0x82, 0x37,
        0x00, 0x27, 0x92, 0x37, 0x5F, 0x26, 0x82, 0x37, 0x00, 0x27, 0x92, 0x3B, 0x5F, 0x26, 0x82, 0x3B,
        0x00, 0x73, 0x92, 0x3E, 0x5F, 0x27, 0x82, 0x3E, 0x00, 0x26, 0x92, 0x3B, 0x5F, 0x26, 0x82, 0x3B,
        0x00, 0x27, 0x92, 0x3B, 0x5F, 0x26, 0x82, 0x3B, 0x00, 0x27, 0x92, 0x3E, 0x5F, 0x26, 0x82, 0x3E,
        0x00, 0x26, 0x92, 0x3C, 0x5F, 0x27, 0x82, 0x3C, 0x00, 0x26, 0x92, 0x3C, 0x5F, 0x27, 0x82, 0x3C,
        0x00, 0x26, 0x92, 0x3C, 0x5F, 0x26, 0x82, 0x3C, 0x00, 0x27, 0x92, 0x3C, 0x5F, 0x26, 0x82, 0x3C,
        0x00, 0x27, 0x92, 0x42, 0x5F, 0x26, 0x82, 0x42, 0x00, 0x26, 0x92, 0x42, 0x5F, 0x27, 0x82, 0x42,
        0x00, 0x26, 0x92, 0x42, 0x5F, 0x27, 0x82, 0x42, 0x00, 0x26, 0x92, 0x3C, 0x5F, 0x26, 0x82, 0x3C,
        0x00, 0x27, 0x92, 0x3E, 0x5F, 0x26, 0x82, 0x3E, 0x00, 0x27, 0x92, 0x3E, 0x5F, 0x26, 0x82, 0x3E,
        0x00, 0x26, 0x92, 0x3E, 0x5F, 0x27, 0x82, 0x3E, 0x00, 0x26, 0x92, 0x3E, 0x5F, 0x27, 0x82, 0x3E,
        0x00, 0x26, 0x92, 0x40, 0x5F, 0x26, 0x82, 0x40, 0x00, 0x27, 0x92, 0x40, 0x5F, 0x26, 0x82, 0x40,
        0x00, 0x27, 0x92, 0x3A, 0x5F, 0x26, 0x82, 0x3A, 0x00, 0x26, 0x92, 0x3A, 0x5F, 0x27, 0x82, 0x3A,
        0x00, 0x26, 0x92, 0x39, 0x5F, 0x27, 0x82, 0x39, 0x00, 0x26, 0x92, 0x35, 0x5F, 0x26, 0x82, 0x35,
        0x00, 0x27, 0x92, 0x41, 0x5F, 0x26, 0x82, 0x41, 0x00, 0x73, 0x92, 0x40, 0x5F, 0x27, 0x82, 0x40,
        0x00, 0x26, 0x92, 0x3C, 0x5F, 0x27, 0x82, 0x3C, 0x00, 0x26, 0x92, 0x3A, 0x5F, 0x26, 0x82, 0x3A,
        0x00, 0x00, 0x92, 0x3A, 0x5F, 0x27, 0x82, 0x3A, 0x00, 0x4D, 0x92, 0x39, 0x5F, 0x26, 0x82, 0x39,
        0x00, 0x26, 0x92, 0x35, 0x5F, 0x27, 0x82, 0x35, 0x00, 0x26, 0x92, 0x3C, 0x5F, 0x27, 0x82, 0x3C,
        0x00, 0x26, 0x92, 0x3C, 0x5F, 0x26, 0x82, 0x3C, 0x00, 0x27, 0x92, 0x3E, 0x5F, 0x26, 0x82, 0x3E,
        0x00, 0x27, 0x92, 0x3E, 0x5F, 0x26, 0x82, 0x3E, 0x00, 0x26, 0x92, 0x3E, 0x5F, 0x27, 0x82, 0x3E,
        0x00, 0x26, 0x92, 0x3E, 0x5F, 0x27, 0x82, 0x3E, 0x00, 0x26, 0x92, 0x3C, 0x5F, 0x26, 0x82, 0x3C,
        0x00, 0x27, 0x92, 0x3C, 0x5F, 0x26, 0x82, 0x3C, 0x00, 0x27, 0x92, 0x3C, 0x5F, 0x26, 0x82, 0x3C,
        0x00, 0x26, 0x92, 0x3C, 0x5F, 0x27, 0x82, 0x3C, 0x00, 0x26, 0x92, 0x3C, 0x5F, 0x27, 0x82, 0x3C,
        0x00, 0x26, 0x92, 0x3E, 0x5F, 0x26, 0x82, 0x3E, 0x00, 0x27, 0x92, 0x42, 0x5F, 0x26, 0x82, 0x42,
        0x00, 0x27, 0x92, 0x42, 0x5F, 0x26, 0x82, 0x42, 0x00, 0x26, 0x92, 0x41, 0x5F, 0x27, 0x82, 0x41,
        0x00, 0x26, 0x92, 0x41, 0x5F, 0x27, 0x82, 0x41, 0x00, 0x81, 0x40, 0x92, 0x3E, 0x5F, 0x26, 0x82,
        0x3E, 0x00, 0x26, 0x92, 0x3B, 0x5F, 0x27, 0x82, 0x3B, 0x00, 0x26, 0x92, 0x3B, 0x5F, 0x27, 0x82,
        0x3B, 0x00, 0x26, 0x92, 0x3E, 0x5F, 0x26, 0x82, 0x3E, 0x00, 0x27, 0x92, 0x3C, 0x5F, 0x26, 0x82,
        0x3C, 0x00, 0x27, 0x92, 0x3C, 0x5F, 0x26, 0x82, 0x3C, 0x00, 0x26, 0x92, 0x3C, 0x5F, 0x27, 0x82,
        0x3C, 0x00, 0x26, 0x92, 0x3C, 0x5F, 0x27, 0x82, 0x3C, 0x00, 0x26, 0x92, 0x3B, 0x5F, 0x26, 0x82,
        0x3B, 0x00, 0x27, 0x92, 0x3B, 0x5F, 0x26, 0x82, 0x3B, 0x00, 0x27, 0x92, 0x3C, 0x5F, 0x26, 0x82,
        0x3C, 0x00, 0x26, 0x92, 0x3E, 0x5F, 0x27, 0x82, 0x3E, 0x00, 0x26, 0x92, 0x3C, 0x5F, 0x27, 0x82,
        0x3C, 0x00, 0x26, 0x92, 0x3C, 0x5F, 0x26, 0x82, 0x3C, 0x00, 0x27, 0x92, 0x3C, 0x5F, 0x25, 0x82,
        0x3C, 0x00, 0x01, 0x92, 0x3C, 0x5F, 0x4D, 0x82, 0x3C, 0x00, 0x26, 0x92, 0x41, 0x5F, 0x27, 0x82,
        0x41, 0x00, 0x26, 0x92, 0x3C, 0x5F, 0x27, 0x82, 0x3C, 0x00, 0x26, 0x92, 0x3F, 0x5F, 0x26, 0x82,
        0x3F, 0x00, 0x00, 0x92, 0x3C, 0x5F, 0x27, 0x82, 0x3C, 0x00, 0x4D, 0x92, 0x3C, 0x5F, 0x26, 0x82,
        0x3C, 0x00, 0x26, 0x92, 0x3C, 0x5F, 0x27, 0x82, 0x3C, 0x00, 0x26, 0x92, 0x3D, 0x5F, 0x27, 0x82,
        0x3D, 0x00, 0x26, 0x92, 0x3D, 0x5F, 0x26, 0x82, 0x3D, 0x00, 0x27, 0x92, 0x3C, 0x5F, 0x26, 0x82,
        0x3C, 0x00, 0x27, 0x92, 0x42, 0x5F, 0x26, 0x82, 0x42, 0x00, 0x26, 0x92, 0x41, 0x5F, 0x27, 0x82,
        0x41, 0x00, 0x26, 0x92, 0x41, 0x5F, 0x27, 0x82, 0x41, 0x00, 0x00, 0x92, 0x40, 0x5F, 0x26, 0x82,
        0x40, 0x00, 0x73, 0x92, 0x41, 0x5F, 0x27, 0x82, 0x41, 0x00, 0x00, 0xFF, 0x2F, 0x00, 0x4D, 0x54,
        0x72, 0x6B, 0x00, 0x00, 0x00, 0x60, 0x00, 0xB3, 0x00, 0x00, 0x00, 0xC3, 0x3C, 0x00, 0xB3, 0x0A,
        0x59, 0x00, 0xFF, 0x58, 0x04, 0x04, 0x02, 0x60, 0x08, 0x00, 0xFF, 0x51, 0x03, 0x0A, 0x67, 0x5A,
        0x92, 0x26, 0x93, 0x3B, 0x5F, 0x26, 0x83, 0x3B, 0x00, 0x27, 0x93, 0x3B, 0x5F, 0x26, 0x83, 0x3B,
        0x00, 0x27, 0x93, 0x3B, 0x5F, 0x26, 0x83, 0x3B, 0x00, 0x26, 0x93, 0x3B, 0x5F, 0x27, 0x83, 0x3B,
        0x00, 0xB7, 0x40, 0x93, 0x3B, 0x5F, 0x26, 0x83, 0x3B, 0x00, 0x27, 0x93, 0x3B, 0x5F, 0x26, 0x83,
        0x3B, 0x00, 0x26, 0x93, 0x3B, 0x5F, 0x27, 0x83, 0x3B, 0x00, 0x26, 0x93, 0x3B, 0x5F, 0x27, 0x83,
        0x3B, 0x00, 0x00, 0xFF, 0x2F, 0x00, 0x4D, 0x54, 0x72, 0x6B, 0x00, 0x00, 0x06, 0xD8, 0x00, 0xB4,
        0x00, 0x00, 0x00, 0xC4, 0x20, 0x00, 0xB4, 0x0A, 0x7F, 0x00, 0xFF, 0x58, 0x04, 0x04, 0x02, 0x60,
        0x08, 0x00, 0xFF, 0x51, 0x03, 0x0A, 0x67, 0x5A, 0x4C, 0x94, 0x32, 0x5F, 0x4D, 0x84, 0x32, 0x00,
        0x00, 0x94, 0x32, 0x5F, 0x4D, 0x84, 0x32, 0x00, 0x00, 0x94, 0x2B, 0x5F, 0x4D, 0x84, 0x2B, 0x00,
        0x00, 0x94, 0x32, 0x5F, 0x4D, 0x84, 0x32, 0x00, 0x00, 0x94, 0x2B, 0x5F, 0x4C, 0x84, 0x2B, 0x00,
        0x00, 0x94, 0x30, 0x5F, 0x4D, 0x84, 0x30, 0x00, 0x00, 0x94, 0x2B, 0x5F, 0x4D, 0x84, 0x2B, 0x00,
        0x00, 0x94, 0x31, 0x5F, 0x4D, 0x84, 0x31, 0x00, 0x00, 0x94, 0x31, 0x5F, 0x4D, 0x84, 0x31, 0x00,
        0x00, 0x94, 0x32, 0x5F, 0x4C, 0x84, 0x32, 0x00, 0x00, 0x94, 0x2B, 0x5F, 0x4D, 0x84, 0x2B, 0x00,
        0x00, 0x94, 0x32, 0x5F, 0x4D, 0x84, 0x32, 0x00, 0x00, 0x94, 0x2B, 0x5F, 0x4D, 0x84, 0x2B, 0x00,
        0x00, 0x94, 0x30, 0x5F, 0x4D, 0x84, 0x30, 0x00, 0x00, 0x94, 0x2B, 0x5F, 0x4C, 0x84, 0x2B, 0x00,
        0x00, 0x94, 0x30, 0x5F, 0x4D, 0x84, 0x30, 0x00, 0x00, 0x94, 0x32, 0x5F, 0x4D, 0x84, 0x32, 0x00,
        0x00, 0x94, 0x32, 0x5F, 0x4D, 0x84, 0x32, 0x00, 0x00, 0x94, 0x2B, 0x5F, 0x4D, 0x84, 0x2B, 0x00,
        0x00, 0x94, 0x32, 0x5F, 0x4C, 0x84, 0x32, 0x00, 0x00, 0x94, 0x2B, 0x5F, 0x27, 0x84, 0x2B, 0x00,
        0x00, 0x94, 0x2C, 0x5F, 0x26, 0x84, 0x2C, 0x00, 0x00, 0x94, 0x2D, 0x5F, 0x4D, 0x84, 0x2D, 0x00,
        0x00, 0x94, 0x28, 0x5F, 0x4D, 0x84, 0x28, 0x00, 0x00, 0x94, 0x2D, 0x5F, 0x4D, 0x84, 0x2D, 0x00,
        0x00, 0x94, 0x34, 0x5F, 0x4C, 0x84, 0x34, 0x00, 0x00, 0x94, 0x32, 0x5F, 0x4D, 0x84, 0x32, 0x00,
        0x00, 0x94, 0x2D, 0x5F, 0x4D, 0x84, 0x2D, 0x00, 0x00, 0x94, 0x32, 0x5F, 0x4C, 0x84, 0x32, 0x00,
        0x01, 0x94, 0x32, 0x5F, 0x4D, 0x84, 0x32, 0x00, 0x00, 0x94, 0x37, 0x5F, 0x4C, 0x84, 0x37, 0x00,
        0x00, 0x94, 0x35, 0x5F, 0x4D, 0x84, 0x35, 0x00, 0x00, 0x94, 0x34, 0x5F, 0x4D, 0x84, 0x34, 0x00,
        0x00, 0x94, 0x32, 0x5F, 0x4D, 0x84, 0x32, 0x00, 0x00, 0x94, 0x30, 0x5F, 0x4D, 0x84, 0x30, 0x00,
        0x00, 0x94, 0x2B, 0x5F, 0x4C, 0x84, 0x2B, 0x00, 0x00, 0x94, 0x30, 0x5F, 0x27, 0x84, 0x30, 0x00,
        0x00, 0x94, 0x24, 0x5F, 0x26, 0x84, 0x24, 0x00, 0x00, 0x94, 0x26, 0x5F, 0x27, 0x84, 0x26, 0x00,
        0x00, 0x94, 0x28, 0x5F, 0x26, 0x84, 0x28, 0x00, 0x00, 0x94, 0x29, 0x5F, 0x4C, 0x84, 0x29, 0x00,
        0x01, 0x94, 0x29, 0x5F, 0x4D, 0x84, 0x29, 0x00, 0x00, 0x94, 0x30, 0x5F, 0x4C, 0x84, 0x30, 0x00,
        0x00, 0x94, 0x29, 0x5F, 0x4D, 0x84, 0x29, 0x00, 0x00, 0x94, 0x30, 0x5F, 0x4D, 0x84, 0x30, 0x00,
        0x00, 0x94, 0x2B, 0x5F, 0x4D, 0x84, 0x2B, 0x00, 0x00, 0x94, 0x30, 0x5F, 0x26, 0x84, 0x30, 0x00,
        0x00, 0x94, 0x24, 0x5F, 0x27, 0x84, 0x24, 0x00, 0x00, 0x94, 0x26, 0x5F, 0x26, 0x84, 0x26, 0x00,
        0x00, 0x94, 0x28, 0x5F, 0x26, 0x84, 0x28, 0x00, 0x00, 0x94, 0x29, 0x5F, 0x4C, 0x84, 0x29, 0x00,
        0x01, 0x94, 0x29, 0x5F, 0x4D, 0x84, 0x29, 0x00, 0x00, 0x94, 0x30, 0x5F, 0x4D, 0x84, 0x30, 0x00,
        0x00, 0x94, 0x29, 0x5F, 0x4D, 0x84, 0x29, 0x00, 0x00, 0x94, 0x2F, 0x5F, 0x4C, 0x84, 0x2F, 0x00,
        0x00, 0x94, 0x28, 0x5F, 0x4D, 0x84, 0x28, 0x00, 0x00, 0x94, 0x2F, 0x5F, 0x4D, 0x84, 0x2F, 0x00,
        0x00, 0x94, 0x28, 0x5F, 0x4D, 0x84, 0x28, 0x00, 0x00, 0x94, 0x2D, 0x5F, 0x4D, 0x84, 0x2D, 0x00,
        0x00, 0x94, 0x28, 0x5F, 0x4C, 0x84, 0x28, 0x00, 0x81, 0x1A, 0x94, 0x26, 0x5F, 0x4D, 0x84, 0x26,
        0x00, 0x00, 0x94, 0x2D, 0x5F, 0x4D, 0x84, 0x2D, 0x00, 0x00, 0x94, 0x32, 0x5F, 0x4C, 0x84, 0x32,
        0x00, 0x00, 0x94, 0x2D, 0x5F, 0x4D, 0x84, 0x2D, 0x00, 0x00, 0x94, 0x32, 0x5F, 0x4C, 0x84, 0x32,
        0x00, 0x01, 0x94, 0x32, 0x5F, 0x26, 0x84, 0x32, 0x00, 0x00, 0x94, 0x37, 0x5F, 0x27, 0x84, 0x37,
        0x00, 0x4D, 0x94, 0x32, 0x5F, 0x4C, 0x84, 0x32, 0x00, 0x00, 0x94, 0x32, 0x5F, 0x4D, 0x84, 0x32,
        0x00, 0x00, 0x94, 0x2B, 0x5F, 0x4D, 0x84, 0x2B, 0x00, 0x00, 0x94, 0x32, 0x5F, 0x4D, 0x84, 0x32,
        0x00, 0x00, 0x94, 0x2B, 0x5F, 0x4D, 0x84, 0x2B, 0x00, 0x00, 0x94, 0x30, 0x5F, 0x4C, 0x84, 0x30,
        0x00, 0x00, 0x94, 0x2B, 0x5F, 0x4D, 0x84, 0x2B, 0x00, 0x00, 0x94, 0x30, 0x5F, 0x27, 0x84, 0x30,
        0x00, 0x00, 0x94, 0x2F, 0x5F, 0x26, 0x84, 0x2F, 0x00, 0x00, 0x94, 0x2D, 0x5F, 0x26, 0x84, 0x2D,
        0x00, 0x00, 0x94, 0x2B, 0x5F, 0x27, 0x84, 0x2B, 0x00, 0x00, 0x94, 0x32, 0x5F, 0x4D, 0x84, 0x32,
        0x00, 0x00, 0x94, 0x2B, 0x5F, 0x4C, 0x84, 0x2B, 0x00, 0x00, 0x94, 0x32, 0x5F, 0x4D, 0x84, 0x32,
        0x00, 0x00, 0x94, 0x2B, 0x5F, 0x27, 0x84, 0x2B, 0x00, 0x00, 0x94, 0x2C, 0x5F, 0x26, 0x84, 0x2C,
        0x00, 0x00, 0x94, 0x2D, 0x5F, 0x4D, 0x84, 0x2D, 0x00, 0x00, 0x94, 0x2C, 0x5F, 0x4D, 0x84, 0x2C,
        0x00, 0x00, 0x94, 0x2B, 0x5F, 0x4C, 0x84, 0x2B, 0x00, 0x00, 0x94, 0x30, 0x5F, 0x4D, 0x84, 0x30,
        0x00, 0x00, 0x94, 0x29, 0x5F, 0x4C, 0x84, 0x29, 0x00, 0x01, 0x94, 0x29, 0x5F, 0x4D, 0x84, 0x29,
        0x00, 0x00, 0x94, 0x2A, 0x5F, 0x4C, 0x84, 0x2A, 0x00, 0x01, 0x94, 0x2A, 0x5F, 0x4C, 0x84, 0x2A,
        0x00, 0x00, 0x94, 0x2B, 0x5F, 0x4C, 0x84, 0x2B, 0x00, 0x01, 0x94, 0x2B, 0x5F, 0x4D, 0x84, 0x2B,
        0x00, 0x00, 0x94, 0x2D, 0x5F, 0x4C, 0x84, 0x2D, 0x00, 0x01, 0x94, 0x2D, 0x5F, 0x4D, 0x84, 0x2D,
        0x00, 0x00, 0x94, 0x32, 0x5F, 0x4C, 0x84, 0x32, 0x00, 0x00, 0x94, 0x2D, 0x5F, 0x4D, 0x84, 0x2D,
        0x00, 0x00, 0x94, 0x32, 0x5F, 0x4D, 0x84, 0x32, 0x00, 0x00, 0x94, 0x2B, 0x5F, 0x4D, 0x84, 0x2B,
        0x00, 0x00, 0x94, 0x30, 0x5F, 0x26, 0x84, 0x30, 0x00, 0x00, 0x94, 0x2F, 0x5F, 0x13, 0x84, 0x2F,
        0x00, 0x00, 0x94, 0x2D, 0x5F, 0x14, 0x84, 0x2D, 0x00, 0x00, 0x94, 0x2C, 0x5F, 0x13, 0x84, 0x2C,
        0x00, 0x00, 0x94, 0x29, 0x5F, 0x13, 0x84, 0x29, 0x00, 0x00, 0x94, 0x28, 0x5F, 0x13, 0x84, 0x28,
        0x00, 0x00, 0x94, 0x26, 0x5F, 0x13, 0x84, 0x26, 0x00, 0x00, 0x94, 0x24, 0x5F, 0x27, 0x84, 0x24,
        0x00, 0x26, 0x94, 0x32, 0x5F, 0x4D, 0x84, 0x32, 0x00, 0x00, 0x94, 0x32, 0x5F, 0x4D, 0x84, 0x32,
        0x00, 0x00, 0x94, 0x2B, 0x5F, 0x4D, 0x84, 0x2B, 0x00, 0x00, 0x94, 0x32, 0x5F, 0x4C, 0x84, 0x32,
        0x00, 0x00, 0x94, 0x2B, 0x5F, 0x4D, 0x84, 0x2B, 0x00, 0x00, 0x94, 0x30, 0x5F, 0x4D, 0x84, 0x30,
        0x00, 0x00, 0x94, 0x2B, 0x5F, 0x4D, 0x84, 0x2B, 0x00, 0x00, 0x94, 0x31, 0x5F, 0x4D, 0x84, 0x31,
        0x00, 0x00, 0x94, 0x31, 0x5F, 0x4C, 0x84, 0x31, 0x00, 0x00, 0x94, 0x32, 0x5F, 0x4D, 0x84, 0x32,
        0x00, 0x00, 0x94, 0x2B, 0x5F, 0x4D, 0x84, 0x2B, 0x00, 0x00, 0x94, 0x32, 0x5F, 0x4D, 0x84, 0x32,
        0x00, 0x00, 0x94, 0x2B, 0x5F, 0x4D, 0x84, 0x2B, 0x00, 0x00, 0x94, 0x30, 0x5F, 0x4C, 0x84, 0x30,
        0x00, 0x00, 0x94, 0x2B, 0x5F, 0x4D, 0x84, 0x2B, 0x00, 0x00, 0x94, 0x30, 0x5F, 0x4D, 0x84, 0x30,
        0x00, 0x00, 0x94, 0x32, 0x5F, 0x4D, 0x84, 0x32, 0x00, 0x00, 0x94, 0x32, 0x5F, 0x4D, 0x84, 0x32,
        0x00, 0x00, 0x94, 0x2B, 0x5F, 0x4C, 0x84, 0x2B, 0x00, 0x00, 0x94, 0x32, 0x5F, 0x4D, 0x84, 0x32,
        0x00, 0x00, 0x94, 0x2B, 0x5F, 0x27, 0x84, 0x2B, 0x00, 0x00, 0x94, 0x2C, 0x5F, 0x26, 0x84, 0x2C,
        0x00, 0x00, 0x94, 0x2D, 0x5F, 0x4D, 0x84, 0x2D, 0x00, 0x00, 0x94, 0x28, 0x5F, 0x4D, 0x84, 0x28,
        0x00, 0x00, 0x94, 0x2D, 0x5F, 0x4C, 0x84, 0x2D, 0x00, 0x00, 0x94, 0x34, 0x5F, 0x4D, 0x84, 0x34,
        0x00, 0x00, 0x94, 0x32, 0x5F, 0x4D, 0x84, 0x32, 0x00, 0x00, 0x94, 0x2D, 0x5F, 0x4D, 0x84, 0x2D,
        0x00, 0x00, 0x94, 0x32, 0x5F, 0x4C, 0x84, 0x32, 0x00, 0x01, 0x94, 0x32, 0x5F, 0x4C, 0x84, 0x32,
        0x00, 0x00, 0x94, 0x37, 0x5F, 0x4D, 0x84, 0x37, 0x00, 0x00, 0x94, 0x35, 0x5F, 0x4D, 0x84, 0x35,
        0x00, 0x00, 0x94, 0x34, 0x5F, 0x4D, 0x84, 0x34, 0x00, 0x00, 0x94, 0x32, 0x5F, 0x4D, 0x84, 0x32,
        0x00, 0x00, 0x94, 0x30, 0x5F, 0x4C, 0x84, 0x30, 0x00, 0x00, 0x94, 0x2B, 0x5F, 0x4D, 0x84, 0x2B,
        0x00, 0x00, 0x94, 0x30, 0x5F, 0x27, 0x84, 0x30, 0x00, 0x00, 0x94, 0x24, 0x5F, 0x26, 0x84, 0x24,
        0x00, 0x00, 0x94, 0x26, 0x5F, 0x26, 0x84, 0x26, 0x00, 0x00, 0x94, 0x28, 0x5F, 0x27, 0x84, 0x28,
        0x00, 0x00, 0x94, 0x29, 0x5F, 0x4C, 0x84, 0x29, 0x00, 0x01, 0x94, 0x29, 0x5F, 0x4C, 0x84, 0x29,
        0x00, 0x00, 0x94, 0x30, 0x5F, 0x4D, 0x84, 0x30, 0x00, 0x00, 0x94, 0x29, 0x5F, 0x4D, 0x84, 0x29,
        0x00, 0x00, 0x94, 0x30, 0x5F, 0x4D, 0x84, 0x30, 0x00, 0x00, 0x94, 0x2B, 0x5F, 0x4D, 0x84, 0x2B,
        0x00, 0x00, 0x94, 0x30, 0x5F, 0x26, 0x84, 0x30, 0x00, 0x00, 0x94, 0x24, 0x5F, 0x26, 0x84, 0x24,
        0x00, 0x00, 0x94, 0x26, 0x5F, 0x27, 0x84, 0x26, 0x00, 0x00, 0x94, 0x28, 0x5F, 0x26, 0x84, 0x28,
        0x00, 0x00, 0x94, 0x29, 0x5F, 0x4C, 0x84, 0x29, 0x00, 0x01, 0x94, 0x29, 0x5F, 0x4D, 0x84, 0x29,
        0x00, 0x00, 0x94, 0x30, 0x5F, 0x4D, 0x84, 0x30, 0x00, 0x00, 0x94, 0x29, 0x5F, 0x4C, 0x84, 0x29,
        0x00, 0x00, 0x94, 0x2F, 0x5F, 0x4D, 0x84, 0x2F, 0x00, 0x00, 0x94, 0x28, 0x5F, 0x4D, 0x84, 0x28,
        0x00, 0x00, 0x94, 0x2F, 0x5F, 0x4D, 0x84, 0x2F, 0x00, 0x00, 0x94, 0x28, 0x5F, 0x4D, 0x84, 0x28,
        0x00, 0x00, 0x94, 0x2D, 0x5F, 0x4C, 0x84, 0x2D, 0x00, 0x00, 0x94, 0x28, 0x5F, 0x4D, 0x84, 0x28,
        0x00, 0x81, 0x1A, 0x94, 0x26, 0x5F, 0x4D, 0x84, 0x26, 0x00, 0x00, 0x94, 0x2D, 0x5F, 0x4C, 0x84,
        0x2D, 0x00, 0x00, 0x94, 0x32, 0x5F, 0x4D, 0x84, 0x32, 0x00, 0x00, 0x94, 0x2D, 0x5F, 0x4D, 0x84,
        0x2D, 0x00, 0x00, 0x94, 0x32, 0x5F, 0x4C, 0x84, 0x32, 0x00, 0x01, 0x94, 0x32, 0x5F, 0x26, 0x84,
        0x32, 0x00, 0x00, 0x94, 0x37, 0x5F, 0x27, 0x84, 0x37, 0x00, 0x4C, 0x94, 0x32, 0x5F, 0x4D, 0x84,
        0x32, 0x00, 0x00, 0x94, 0x32, 0x5F, 0x4D, 0x84, 0x32, 0x00, 0x00, 0x94, 0x2B, 0x5F, 0x4D, 0x84,
        0x2B, 0x00, 0x00, 0x94, 0x32, 0x5F, 0x4D, 0x84, 0x32, 0x00, 0x00, 0x94, 0x2B, 0x5F, 0x4C, 0x84,
        0x2B, 0x00, 0x00, 0x94, 0x30, 0x5F, 0x4D, 0x84, 0x30, 0x00, 0x00, 0x94, 0x2B, 0x5F, 0x4D, 0x84,
        0x2B, 0x00, 0x00, 0x94, 0x30, 0x5F, 0x26, 0x84, 0x30, 0x00, 0x00, 0x94, 0x2F, 0x5F, 0x27, 0x84,
        0x2F, 0x00, 0x00, 0x94, 0x2D, 0x5F, 0x26, 0x84, 0x2D, 0x00, 0x00, 0x94, 0x2B, 0x5F, 0x27, 0x84,
        0x2B, 0x00, 0x00, 0x94, 0x32, 0x5F, 0x4C, 0x84, 0x32, 0x00, 0x00, 0x94, 0x2B, 0x5F, 0x4D, 0x84,
        0x2B, 0x00, 0x00, 0x94, 0x32, 0x5F, 0x4D, 0x84, 0x32, 0x00, 0x00, 0x94, 0x2B, 0x5F, 0x26, 0x84,
        0x2B, 0x00, 0x00, 0x94, 0x2C, 0x5F, 0x27, 0x84, 0x2C, 0x00, 0x00, 0x94, 0x2D, 0x5F, 0x4D, 0x84,
        0x2D, 0x00, 0x00, 0x94, 0x2C, 0x5F, 0x4C, 0x84, 0x2C, 0x00, 0x00, 0x94, 0x2B, 0x5F, 0x4D, 0x84,
        0x2B, 0x00, 0x00, 0x94, 0x30, 0x5F, 0x4D, 0x84, 0x30, 0x00, 0x00, 0x94, 0x29, 0x5F, 0x4C, 0x84,
        0x29, 0x00, 0x01, 0x94, 0x29, 0x5F, 0x4D, 0x84, 0x29, 0x00, 0x00, 0x94, 0x2A, 0x5F, 0x4C, 0x84,
        0x2A, 0x00, 0x00, 0x94, 0x2A, 0x5F, 0x4D, 0x84, 0x2A, 0x00, 0x00, 0x94, 0x2B, 0x5F, 0x4C, 0x84,
        0x2B, 0x00, 0x01, 0x94, 0x2B, 0x5F, 0x4D, 0x84, 0x2B, 0x00, 0x00, 0x94, 0x2D, 0x5F, 0x4C, 0x84,
        0x2D, 0x00, 0x01, 0x94, 0x2D, 0x5F, 0x4C, 0x84, 0x2D, 0x00, 0x00, 0x94, 0x32, 0x5F, 0x4D, 0x84,
        0x32, 0x00, 0x00, 0x94, 0x2D, 0x5F, 0x4D, 0x84, 0x2D, 0x00, 0x00, 0x94, 0x32, 0x5F, 0x4D, 0x84,
        0x32, 0x00, 0x00, 0x94, 0x2B, 0x5F, 0x4D, 0x84, 0x2B, 0x00, 0x00, 0x94, 0x30, 0x5F, 0x26, 0x84,
        0x30, 0x00, 0x00, 0x94, 0x2F, 0x5F, 0x13, 0x84, 0x2F, 0x00, 0x00, 0x94, 0x2D, 0x5F, 0x13, 0x84,
        0x2D, 0x00, 0x00, 0x94, 0x2C, 0x5F, 0x14, 0x84, 0x2C, 0x00, 0x00, 0x94, 0x29, 0x5F, 0x13, 0x84,
        0x29, 0x00, 0x00, 0x94, 0x28, 0x5F, 0x13, 0x84, 0x28, 0x00, 0x00, 0x94, 0x26, 0x5F, 0x13, 0x84,
        0x26, 0x00, 0x00, 0x94, 0x24, 0x5F, 0x27, 0x84, 0x24, 0x00, 0x26, 0x94, 0x24, 0x5F, 0x26, 0x84,
        0x24, 0x00, 0x00, 0xFF, 0x2F, 0x00, 0x4D, 0x54, 0x72, 0x6B, 0x00, 0x00, 0x00, 0x8D, 0x00, 0xB5,
        0x00, 0x00, 0x00, 0xFF, 0x58, 0x04, 0x04, 0x02, 0x60, 0x08, 0x00, 0xFF, 0x51, 0x03, 0x0A, 0x67,
        0x5A, 0x92, 0x00, 0x95, 0x2B, 0x5F, 0x4C, 0x85, 0x2B, 0x00, 0x00, 0x95, 0x29, 0x5F, 0x4D, 0x85,
        0x29, 0x00, 0x00, 0x95, 0x28, 0x5F, 0x4D, 0x85, 0x28, 0x00, 0x00, 0x95, 0x26, 0x5F, 0x4D, 0x85,
        0x26, 0x00, 0x00, 0x95, 0x24, 0x5F, 0x4D, 0x85, 0x24, 0x00, 0x84, 0x19, 0x95, 0x24, 0x5F, 0x4D,
        0x85, 0x24, 0x00, 0x8C, 0x26, 0x95, 0x2B, 0x5F, 0x27, 0x85, 0x2B, 0x00, 0xA5, 0x19, 0x95, 0x2B,
        0x5F, 0x4D, 0x85, 0x2B, 0x00, 0x00, 0x95, 0x29, 0x5F, 0x4D, 0x85, 0x29, 0x00, 0x00, 0x95, 0x28,
        0x5F, 0x4D, 0x85, 0x28, 0x00, 0x00, 0x95, 0x26, 0x5F, 0x4D, 0x85, 0x26, 0x00, 0x00, 0x95, 0x24,
        0x5F, 0x4C, 0x85, 0x24, 0x00, 0x84, 0x1A, 0x95, 0x24, 0x5F, 0x4D, 0x85, 0x24, 0x00, 0x8C, 0x26,
        0x95, 0x2B, 0x5F, 0x27, 0x85, 0x2B, 0x00, 0x00, 0xFF, 0x2F, 0x00,
*/
